<?xml version="1.0" encoding="UTF-8" standalone="no"?>
<!-- Created with Inkscape (http://www.inkscape.org/) -->

<svg
   version="1.1"
   id="svg1"
   width="370.35068"
   height="199.02533"
   viewBox="0 0 370.35068 199.02533"
   sodipodi:docname="3.2FBD.svg"
   inkscape:version="1.4.2 (f4327f4, 2025-05-13)"
   xmlns:inkscape="http://www.inkscape.org/namespaces/inkscape"
   xmlns:sodipodi="http://sodipodi.sourceforge.net/DTD/sodipodi-0.dtd"
   xmlns="http://www.w3.org/2000/svg"
   xmlns:svg="http://www.w3.org/2000/svg">
  <defs
     id="defs1" />
  <sodipodi:namedview
     id="namedview1"
     pagecolor="#ffffff"
     bordercolor="#000000"
     borderopacity="0.25"
     inkscape:showpageshadow="2"
     inkscape:pageopacity="0.0"
     inkscape:pagecheckerboard="0"
     inkscape:deskcolor="#d1d1d1"
     inkscape:zoom="5.9037712"
     inkscape:cx="185.22059"
     inkscape:cy="99.512665"
     inkscape:window-width="2560"
     inkscape:window-height="1377"
     inkscape:window-x="1912"
     inkscape:window-y="-8"
     inkscape:window-maximized="1"
     inkscape:current-layer="g1">
    <inkscape:page
       x="0"
       y="0"
       inkscape:label="1"
       id="page1"
       width="370.35068"
       height="199.02533"
       margin="0"
       bleed="0" />
  </sodipodi:namedview>
  <g
     id="g1"
     inkscape:groupmode="layer"
     inkscape:label="1">
    <path
       id="path1"
       d="M -42.5202,85.04042 H 42.5202"
       style="fill:none;stroke:#000000;stroke-width:0.79701;stroke-linecap:butt;stroke-linejoin:miter;stroke-miterlimit:10;stroke-dasharray:none;stroke-opacity:1"
       transform="matrix(1.3333333,0,0,-1.3333333,69.474667,150.46267)" />
    <path
       id="path2"
       d="M -39.68535,85.04042 -43.9372,80.78857"
       style="fill:none;stroke:#000000;stroke-width:0.3985;stroke-linecap:butt;stroke-linejoin:miter;stroke-miterlimit:10;stroke-dasharray:none;stroke-opacity:1"
       transform="matrix(1.3333333,0,0,-1.3333333,69.474667,150.46267)" />
    <path
       id="path3"
       d="m -31.18166,85.04042 -4.25183,-4.25185"
       style="fill:none;stroke:#000000;stroke-width:0.3985;stroke-linecap:butt;stroke-linejoin:miter;stroke-miterlimit:10;stroke-dasharray:none;stroke-opacity:1"
       transform="matrix(1.3333333,0,0,-1.3333333,69.474667,150.46267)" />
    <path
       id="path4"
       d="M -22.67795,85.04042 -26.9298,80.78857"
       style="fill:none;stroke:#000000;stroke-width:0.3985;stroke-linecap:butt;stroke-linejoin:miter;stroke-miterlimit:10;stroke-dasharray:none;stroke-opacity:1"
       transform="matrix(1.3333333,0,0,-1.3333333,69.474667,150.46267)" />
    <path
       id="path5"
       d="M -14.17426,85.04042 -18.4261,80.78857"
       style="fill:none;stroke:#000000;stroke-width:0.3985;stroke-linecap:butt;stroke-linejoin:miter;stroke-miterlimit:10;stroke-dasharray:none;stroke-opacity:1"
       transform="matrix(1.3333333,0,0,-1.3333333,69.474667,150.46267)" />
    <path
       id="path6"
       d="M -5.67056,85.04042 -9.9224,80.78857"
       style="fill:none;stroke:#000000;stroke-width:0.3985;stroke-linecap:butt;stroke-linejoin:miter;stroke-miterlimit:10;stroke-dasharray:none;stroke-opacity:1"
       transform="matrix(1.3333333,0,0,-1.3333333,69.474667,150.46267)" />
    <path
       id="path7"
       d="M 2.83311,85.04042 -1.41872,80.78857"
       style="fill:none;stroke:#000000;stroke-width:0.3985;stroke-linecap:butt;stroke-linejoin:miter;stroke-miterlimit:10;stroke-dasharray:none;stroke-opacity:1"
       transform="matrix(1.3333333,0,0,-1.3333333,69.474667,150.46267)" />
    <path
       id="path8"
       d="M 11.3368,85.04042 7.08496,80.78857"
       style="fill:none;stroke:#000000;stroke-width:0.3985;stroke-linecap:butt;stroke-linejoin:miter;stroke-miterlimit:10;stroke-dasharray:none;stroke-opacity:1"
       transform="matrix(1.3333333,0,0,-1.3333333,69.474667,150.46267)" />
    <path
       id="path9"
       d="M 19.8405,85.04042 15.58867,80.78857"
       style="fill:none;stroke:#000000;stroke-width:0.3985;stroke-linecap:butt;stroke-linejoin:miter;stroke-miterlimit:10;stroke-dasharray:none;stroke-opacity:1"
       transform="matrix(1.3333333,0,0,-1.3333333,69.474667,150.46267)" />
    <path
       id="path10"
       d="M 28.34421,85.04042 24.09236,80.78857"
       style="fill:none;stroke:#000000;stroke-width:0.3985;stroke-linecap:butt;stroke-linejoin:miter;stroke-miterlimit:10;stroke-dasharray:none;stroke-opacity:1"
       transform="matrix(1.3333333,0,0,-1.3333333,69.474667,150.46267)" />
    <path
       id="path11"
       d="M 36.8479,85.04042 32.59605,80.78857"
       style="fill:none;stroke:#000000;stroke-width:0.3985;stroke-linecap:butt;stroke-linejoin:miter;stroke-miterlimit:10;stroke-dasharray:none;stroke-opacity:1"
       transform="matrix(1.3333333,0,0,-1.3333333,69.474667,150.46267)" />
    <path
       id="path12"
       d="m 0,85.04042 c 3.14644,-0.70862 5.66934,-2.30028 5.66934,-4.11017 0,-1.8099 -2.5229,-3.40156 -5.66934,-4.1102 -3.14644,-0.70862 -5.66934,-0.53421 -5.66934,-0.14155 0,0.39265 2.5229,0.56704 5.66934,-0.14157 3.14644,-0.70917 5.66934,-2.30082 5.66934,-4.11072 0,-1.80989 -2.5229,-3.40155 -5.66934,-4.11019 -3.14644,-0.70862 -5.66934,-0.53421 -5.66934,-0.14155 0,0.39265 2.5229,0.56705 5.66934,-0.14159 3.14644,-0.70915 5.66934,-2.30079 5.66934,-4.1107 0,-1.80991 -2.5229,-3.40157 -5.66934,-4.11018 -3.14644,-0.70864 -5.66934,-0.53421 -5.66934,-0.14156 0,0.39264 2.5229,0.56705 5.66934,-0.14159 3.14644,-0.70915 5.66934,-2.30079 5.66934,-4.1107 0,-1.8099 -2.5229,-3.40156 -5.66934,-4.11018 v -5.95291"
       style="fill:none;stroke:#000000;stroke-width:0.79701;stroke-linecap:butt;stroke-linejoin:miter;stroke-miterlimit:10;stroke-dasharray:none;stroke-opacity:1"
       transform="matrix(1.3333333,0,0,-1.3333333,69.474667,150.46267)" />
    <path
       id="path13"
       d="M -15.59082,14.17339 V 45.35506 H 15.59082 V 14.17339 Z"
       style="fill:#e6e6e6;fill-opacity:1;fill-rule:nonzero;stroke:#000000;stroke-width:0.79701;stroke-linecap:butt;stroke-linejoin:miter;stroke-miterlimit:10;stroke-dasharray:none;stroke-opacity:1"
       transform="matrix(1.3333333,0,0,-1.3333333,69.474667,150.46267)" />
    <path
       id="path14"
       d="m 0.88030469,-0.58639844 c -0.0351563,0.15234375 -0.09375,0.375 -0.09375,0.421875 0,0.1875 0.140625,0.26953125 0.29296871,0.26953125 0.1171875,0 0.2929688,-0.0703125 0.3632813,-0.26953125 0.011719,-0.0234375 0.1289062,-0.4921875 0.1875,-0.73828125 L 1.8529609,-1.8051484 c 0.058594,-0.2226563 0.1171875,-0.4335938 0.1757813,-0.6679688 0.035156,-0.1640625 0.1171875,-0.4570312 0.1289062,-0.4921875 0.140625,-0.3164062 0.6679688,-1.21875 1.6171875,-1.21875 0.4453125,0 0.5390625,0.3632813 0.5390625,0.6914063 0,0.2578125 -0.070312,0.5390625 -0.1523437,0.8320312 l -0.2695313,1.1601563 -0.1992187,0.74999996 c -0.046875,0.19921875 -0.140625,0.5390625 -0.140625,0.5859375 0,0.1875 0.140625,0.26953125 0.2929687,0.26953125 0.3046875,0 0.375,-0.24609375 0.4453125,-0.5625 0.140625,-0.56250001 0.515625,-2.01562501 0.5976563,-2.40234371 0.035156,-0.1289063 0.5625,-1.3242188 1.6523437,-1.3242188 0.421875,0 0.5390625,0.3398438 0.5390625,0.6914063 0,0.5742187 -0.421875,1.7109375 -0.6210937,2.2382812 -0.09375,0.234375 -0.1289063,0.35156251 -0.1289063,0.55078126 0,0.46875 0.3515625,0.80859375 0.8085938,0.80859375 0.9375,0 1.3125,-1.45312501 1.3125,-1.53515621 0,-0.09375 -0.09375,-0.09375 -0.1171875,-0.09375 -0.1054688,0 -0.1054688,0.023437 -0.1523438,0.1757812 -0.1523437,0.52734376 -0.46875,1.24218751 -1.0195312,1.24218751 -0.1640625,0 -0.234375,-0.10546875 -0.234375,-0.328125 0,-0.2578125 0.082031,-0.4921875 0.1757812,-0.71484371 0.1875,-0.515625 0.609375,-1.6171875 0.609375,-2.1914063 0,-0.6445312 -0.3984375,-1.0664062 -1.1484375,-1.0664062 -0.75,0 -1.2539062,0.4453125 -1.6171875,0.9726562 -0.011719,-0.1289062 -0.046875,-0.46875 -0.328125,-0.7148437 -0.2460937,-0.1992188 -0.5625,-0.2578125 -0.8085937,-0.2578125 -0.9023438,0 -1.3828125,0.6445312 -1.5585938,0.8671875 -0.046875,-0.5625 -0.46875,-0.8671875 -0.9140625,-0.8671875 -0.45703121,0 -0.64453121,0.3867187 -0.73828121,0.5742187 -0.17578125,0.3398438 -0.3046875,0.9375 -0.3046875,0.9609375 0,0.1054688 0.09375,0.1054688 0.1171875,0.1054688 0.09375,0 0.10546875,-0.011719 0.1640625,-0.234375 0.17578125,-0.703125 0.375,-1.1835938 0.72656251,-1.1835938 0.1640625,0 0.3164062,0.082031 0.3164062,0.4570313 0,0.2109375 -0.035156,0.3164062 -0.1640625,0.8320312 z m 0,0"
       style="fill:#000000;fill-opacity:1;fill-rule:nonzero;stroke:none"
       aria-label="m"
       transform="matrix(1.3333333,0,0,1.3333333,63.642667,113.63733)" />
    <path
       id="path15"
       d="M 3.4790469,-3.8665781 2.2017031,-4.1712656 c -0.6210937,-0.1523438 -1.0078125,-0.6914063 -1.0078125,-1.265625 0,-0.703125 0.5390625,-1.3007813 1.3125,-1.3007813 1.6640625,0 1.8867188,1.6289063 1.9453125,2.0742188 0.011719,0.058594 0.011719,0.1171875 0.1171875,0.1171875 0.1289063,0 0.1289063,-0.046875 0.1289063,-0.234375 v -2.0039063 c 0,-0.1640625 0,-0.234375 -0.1054688,-0.234375 -0.070312,0 -0.082031,0.011719 -0.1523437,0.1289063 l -0.3515625,0.5625 c -0.2929688,-0.28125 -0.703125,-0.6914063 -1.59375,-0.6914063 -1.1015625,0 -1.93359378,0.8789063 -1.93359378,1.9335938 0,0.8203125 0.52734378,1.546875 1.30078128,1.8164062 0.1054687,0.046875 0.6210937,0.1640625 1.3125,0.328125 0.2695312,0.070312 0.5742187,0.140625 0.84375,0.515625 0.2109375,0.2578125 0.3164062,0.5859375 0.3164062,0.9140625 0,0.70312503 -0.5039062,1.41796878 -1.3359375,1.41796878 -0.2929687,0 -1.0429687,-0.046875 -1.5703125,-0.5390625 C 0.84232812,-1.1595469 0.81889062,-1.8040781 0.80717187,-2.1556406 c -0.0117188,-0.1054688 -0.09375,-0.1054688 -0.1171875,-0.1054688 -0.12890625,0 -0.12890625,0.070312 -0.12890625,0.2460938 v 1.99218748 c 0,0.17578125 0,0.24609375 0.10546875,0.24609375 0.0703125,0 0.0820313,-0.0234375 0.15234375,-0.12890625 0,-0.01171875 0.0234375,-0.046875 0.35156248,-0.57421875 0.3164063,0.33984375 0.9492188,0.703125 1.8398438,0.703125 1.1601562,0 1.9570312,-0.984375 1.9570312,-2.07421873 0,-0.9960938 -0.65625,-1.8164063 -1.4882812,-2.015625 z m 5.9472656,3.08203123 v 0.890625 L 10.867719,6.09375e-4 V -0.30407812 c -0.703125,0 -0.785157,-0.0703125 -0.785157,-0.5625 V -4.4056406 l -1.4531245,0.1171875 v 0.3046875 c 0.6914062,0 0.7734375,0.070312 0.7734375,0.5625 v 1.7695312 c 0,0.86718753 -0.4804688,1.54687503 -1.2070313,1.54687503 -0.8320312,0 -0.8789062,-0.46875 -0.8789062,-0.99609373 v -3.3046875 l -1.4648438,0.1171875 v 0.3046875 c 0.7851563,0 0.7851563,0.035156 0.7851563,0.9140625 v 1.5 c 0,0.77343748 0,1.67578123 1.5117187,1.67578123 0.5507813,0 0.9960938,-0.26953125 1.2773438,-0.890625 z M 12.780805,-3.7493906 v -0.65625 l -1.429688,0.1171875 v 0.3046875 c 0.703125,0 0.773438,0.058594 0.773438,0.4921875 v 4.6640625 c 0,0.4570312 -0.105469,0.4570312 -0.773438,0.4570312 v 0.3046875 c 0.339844,-0.011719 0.855469,-0.035156 1.113281,-0.035156 0.269532,0 0.773438,0.023437 1.125,0.035156 V 1.6295156 c -0.667968,0 -0.773437,0 -0.773437,-0.4570312 v -1.75781252 c 0.04687,0.15234375 0.46875,0.69140625 1.21875,0.69140625 1.183594,0 2.226562,-0.97265625 2.226562,-2.26171873 0,-1.265625 -0.972656,-2.25 -2.085937,-2.25 -0.773438,0 -1.195313,0.4453125 -1.394531,0.65625 z m 0.03516,2.6132812 v -2.2148437 c 0.28125,-0.515625 0.773437,-0.796875 1.277344,-0.796875 0.726562,0 1.335937,0.8671875 1.335937,1.9921875 0,1.20703123 -0.691406,2.05078123 -1.429687,2.05078123 -0.398438,0 -0.773438,-0.19921875 -1.042969,-0.609375 -0.140625,-0.2109375 -0.140625,-0.22265625 -0.140625,-0.42187503 z m 5.501953,-2.6132812 v -0.65625 l -1.429687,0.1171875 v 0.3046875 c 0.703125,0 0.773437,0.058594 0.773437,0.4921875 v 4.6640625 c 0,0.4570312 -0.105469,0.4570312 -0.773437,0.4570312 v 0.3046875 c 0.339843,-0.011719 0.855468,-0.035156 1.113281,-0.035156 0.269531,0 0.773437,0.023437 1.125,0.035156 V 1.6295156 c -0.667969,0 -0.773438,0 -0.773438,-0.4570312 v -1.75781252 c 0.04687,0.15234375 0.46875,0.69140625 1.21875,0.69140625 1.183594,0 2.226563,-0.97265625 2.226563,-2.26171873 0,-1.265625 -0.972656,-2.25 -2.085938,-2.25 -0.773437,0 -1.195312,0.4453125 -1.394531,0.65625 z m 0.03516,2.6132812 v -2.2148437 c 0.28125,-0.515625 0.773438,-0.796875 1.277344,-0.796875 0.726563,0 1.335938,0.8671875 1.335938,1.9921875 0,1.20703123 -0.691407,2.05078123 -1.429688,2.05078123 -0.398437,0 -0.773437,-0.19921875 -1.042969,-0.609375 C 18.35307,-0.92517187 18.35307,-0.93689062 18.35307,-1.1361094 Z m 8.753907,-0.9960937 c 0,-1.2773438 -0.996094,-2.3320313 -2.191407,-2.3320313 -1.253906,0 -2.214843,1.0898438 -2.214843,2.3320313 0,1.28906248 1.03125,2.23828123 2.203125,2.23828123 1.207031,0 2.203125,-0.97265625 2.203125,-2.23828123 z m -2.191407,1.99218748 c -0.433593,0 -0.867187,-0.2109375 -1.136718,-0.66796875 -0.257813,-0.43359373 -0.257813,-1.04296873 -0.257813,-1.40625003 0,-0.3867187 0,-0.9257812 0.246094,-1.359375 0.269531,-0.4570312 0.738281,-0.6679687 1.136719,-0.6679687 0.433593,0 0.867187,0.2226562 1.125,0.6445312 0.257812,0.4335938 0.257812,1.0078125 0.257812,1.3828125 0,0.3632813 0,0.9023438 -0.222656,1.33593753 -0.222656,0.4453125 -0.65625,0.73828125 -1.148438,0.73828125 z m 4.148438,-3.16406248 v -1.1015625 l -1.382813,0.1171875 v 0.3046875 c 0.691407,0 0.773438,0.070312 0.773438,0.5625 v 2.66015623 c 0,0.45703125 -0.105469,0.45703125 -0.773438,0.45703125 V 6.09375e-4 c 0.386719,-0.011718745 0.855469,-0.035156245 1.136719,-0.035156245 0.398438,0 0.867188,0 1.265625,0.035156245 V -0.30407812 H 29.87261 c -0.738282,0 -0.761719,-0.1171875 -0.761719,-0.46875 V -2.3079844 c 0,-0.984375 0.421875,-1.875 1.183594,-1.875 0.05859,0 0.08203,0 0.105468,0.011719 -0.03516,0.011719 -0.234375,0.1289062 -0.234375,0.3867187 0,0.28125 0.210938,0.4335938 0.433594,0.4335938 0.175781,0 0.421875,-0.1289063 0.421875,-0.4453125 0,-0.3164063 -0.304687,-0.609375 -0.726562,-0.609375 -0.738282,0 -1.089844,0.6679687 -1.230469,1.1015623 z m 3.960937,-0.6796875 h 1.429688 V -4.2884531 H 33.024953 V -6.1282969 H 32.77886 c -0.01172,0.8203125 -0.316407,1.8867188 -1.289063,1.921875 v 0.2226563 h 0.84375 v 2.7539062 c 0,1.21875003 0.925781,1.33593753 1.289063,1.33593753 0.703125,0 0.984375,-0.703125 0.984375,-1.33593753 v -0.5742187 h -0.246094 v 0.5507812 c 0,0.73828128 -0.304688,1.11328128 -0.667969,1.11328128 -0.667969,0 -0.667969,-0.90234378 -0.667969,-1.07812498 z m 0,0"
       style="fill:#000000;fill-opacity:1;fill-rule:nonzero;stroke:none"
       aria-label="Support"
       transform="matrix(1.3333333,0,0,1.3333333,46.025333,24.132)" />
    <path
       id="path16"
       d="M 3.4813281,-3.86625 2.2039844,-4.1709375 c -0.6210938,-0.1523437 -1.0078125,-0.6914062 -1.0078125,-1.265625 0,-0.703125 0.5390625,-1.3007812 1.3125,-1.3007812 1.6640625,0 1.8867187,1.6289062 1.9453125,2.0742187 0.011719,0.058594 0.011719,0.1171875 0.1171875,0.1171875 0.1289062,0 0.1289062,-0.046875 0.1289062,-0.234375 v -2.0039062 c 0,-0.1640625 0,-0.234375 -0.1054687,-0.234375 -0.070312,0 -0.082031,0.011719 -0.1523438,0.1289062 l -0.3515625,0.5625 c -0.2929687,-0.28125 -0.703125,-0.6914062 -1.59375,-0.6914062 -1.1015625,0 -1.93359372,0.8789062 -1.93359372,1.9335937 0,0.8203125 0.52734372,1.546875 1.30078122,1.8164063 0.1054688,0.046875 0.6210938,0.1640625 1.3125,0.328125 0.2695313,0.070312 0.5742188,0.140625 0.84375,0.515625 0.2109375,0.2578125 0.3164063,0.5859375 0.3164063,0.9140625 0,0.70312495 -0.5039063,1.4179687 -1.3359375,1.4179687 -0.2929688,0 -1.0429688,-0.046875 -1.5703125,-0.5390625 -0.58593752,-0.5273437 -0.60937502,-1.171875 -0.62109377,-1.5234375 -0.0117188,-0.1054687 -0.09375,-0.1054687 -0.1171875,-0.1054687 -0.12890625,0 -0.12890625,0.070312 -0.12890625,0.2460937 V -0.0225 c 0,0.17578125 0,0.24609375 0.10546875,0.24609375 0.0703125,0 0.0820313,-0.0234375 0.15234375,-0.12890625 0,-0.01171875 0.0234375,-0.046875 0.35156252,-0.57421875 0.3164062,0.33984375 0.9492187,0.703125 1.8398437,0.703125 1.1601563,0 1.9570313,-0.984375 1.9570313,-2.07421875 0,-0.9960937 -0.65625,-1.8164062 -1.4882813,-2.015625 z m 3.7646485,0.1171875 v -0.65625 L 5.8162891,-4.288125 v 0.3046875 c 0.703125,0 0.7734375,0.058594 0.7734375,0.4921875 v 4.6640625 c 0,0.4570313 -0.1054688,0.4570313 -0.7734375,0.4570313 v 0.3046875 c 0.3398437,-0.011719 0.8554687,-0.035156 1.1132812,-0.035156 0.2695313,0 0.7734375,0.023437 1.125,0.035156 V 1.6298438 c -0.6679687,0 -0.7734375,0 -0.7734375,-0.4570313 V -0.585 c 0.046875,0.15234375 0.46875,0.69140625 1.21875,0.69140625 1.1835938,0 2.2265622,-0.97265625 2.2265622,-2.26171875 0,-1.265625 -0.9726559,-2.25 -2.0859372,-2.25 -0.7734375,0 -1.1953125,0.4453125 -1.3945312,0.65625 z m 0.035156,2.6132813 V -3.350625 C 7.5623828,-3.86625 8.0545703,-4.1475 8.5584766,-4.1475 c 0.7265625,0 1.3359375,0.8671875 1.3359375,1.9921875 0,1.20703125 -0.6914063,2.05078125 -1.4296875,2.05078125 -0.3984375,0 -0.7734375,-0.19921875 -1.0429688,-0.609375 C 7.2811328,-0.92484375 7.2811328,-0.9365625 7.2811326,-1.1357812 Z M 12.733281,-3.30375 v -1.1015625 l -1.382812,0.1171875 v 0.3046875 c 0.691406,0 0.773437,0.070312 0.773437,0.5625 v 2.66015625 c 0,0.45703125 -0.105468,0.45703125 -0.773437,0.45703125 V 9.375e-4 c 0.386719,-0.01171875 0.855469,-0.03515625 1.136719,-0.03515625 0.398437,0 0.867187,0 1.265625,0.03515625 V -0.30375 h -0.210938 c -0.738281,0 -0.761719,-0.1171875 -0.761719,-0.46875 v -1.5351562 c 0,-0.984375 0.421875,-1.875 1.183594,-1.875 0.05859,0 0.08203,0 0.105469,0.011719 -0.03516,0.011719 -0.234375,0.1289063 -0.234375,0.3867188 0,0.28125 0.210937,0.4335937 0.433594,0.4335937 0.175781,0 0.421875,-0.1289062 0.421875,-0.4453125 0,-0.3164062 -0.304688,-0.609375 -0.726563,-0.609375 -0.738281,0 -1.089844,0.6679688 -1.230469,1.1015622 z m 3.996094,-1.1015625 -1.394531,0.1171875 v 0.3046875 c 0.65625,0 0.738281,0.058594 0.738281,0.5507813 v 2.67187495 c 0,0.45703125 -0.105469,0.45703125 -0.773437,0.45703125 V 9.375e-4 c 0.316406,-0.01171875 0.855468,-0.03515625 1.101562,-0.03515625 0.339844,0 0.691406,0.0234375 1.03125,0.03515625 V -0.30375 c -0.65625,0 -0.703125,-0.0585938 -0.703125,-0.4453125 z m 0.04687,-1.734375 c 0,-0.3164062 -0.246094,-0.5273437 -0.527344,-0.5273437 -0.316406,0 -0.527343,0.2695312 -0.527343,0.5273437 0,0.2695313 0.210937,0.5273438 0.527343,0.5273438 0.28125,0 0.527344,-0.1992188 0.527344,-0.5273438 z m 2.06543,2.71875 v 2.66015625 c 0,0.45703125 -0.117188,0.45703125 -0.785157,0.45703125 V 9.375e-4 c 0.351563,-0.01171875 0.855469,-0.03515625 1.125,-0.03515625 0.257813,0 0.785157,0.0234375 1.113282,0.03515625 V -0.30375 c -0.65625,0 -0.773438,0 -0.773438,-0.45703125 V -2.5889062 c 0,-1.03125 0.714844,-1.59375 1.347656,-1.59375 0.621094,0 0.738282,0.5390625 0.738282,1.1015625 v 2.32031245 C 21.6073,-0.30375 21.490112,-0.30375 20.833862,-0.30375 V 9.375e-4 c 0.339844,-0.01171875 0.855469,-0.03515625 1.125,-0.03515625 0.257813,0 0.773438,0.0234375 1.113281,0.03515625 V -0.30375 c -0.515625,0 -0.773437,0 -0.785156,-0.3046875 V -2.506875 c 0,-0.8554687 0,-1.171875 -0.304687,-1.5234375 -0.140625,-0.1757812 -0.46875,-0.375 -1.042969,-0.375 -0.726563,0 -1.195313,0.4335938 -1.476563,1.0546875 v -1.0546875 l -1.40625,0.1171875 v 0.3046875 c 0.703125,0 0.785157,0.070312 0.785157,0.5625 z M 25.489141,-1.71 c -0.867188,0 -0.867188,-0.9960937 -0.867188,-1.2304687 0,-0.2695313 0.01172,-0.5859375 0.152344,-0.8320313 0.08203,-0.1171875 0.316406,-0.3984375 0.714844,-0.3984375 0.867187,0 0.867187,0.9960938 0.867187,1.21875 0,0.2695313 -0.01172,0.5976563 -0.164062,0.84375 C 26.110234,-1.99125 25.887578,-1.71 25.489141,-1.71 Z m -1.160157,0.3867188 c 0,-0.035156 0,-0.2695313 0.175782,-0.46875 0.386718,0.28125 0.796875,0.3046875 0.984375,0.3046875 0.925781,0 1.605468,-0.6796875 1.605468,-1.453125 0,-0.3632813 -0.152343,-0.7382813 -0.398437,-0.9609375 0.351562,-0.3398438 0.714844,-0.3867188 0.890625,-0.3867188 0.02344,0 0.07031,0 0.105469,0 -0.117188,0.046875 -0.164063,0.1523438 -0.164063,0.2695313 0,0.1757812 0.128906,0.2929687 0.292969,0.2929687 0.09375,0 0.28125,-0.070312 0.28125,-0.2929687 0,-0.1757813 -0.117188,-0.4921875 -0.503906,-0.4921875 -0.199219,0 -0.632813,0.058594 -1.054688,0.46875 -0.421875,-0.328125 -0.84375,-0.3632813 -1.054687,-0.3632813 -0.925782,0 -1.617188,0.6914063 -1.617188,1.453125 0,0.4453125 0.222656,0.8203125 0.46875,1.03125 -0.128906,0.1523438 -0.304687,0.4804688 -0.304687,0.8203125 0,0.31640625 0.128906,0.69140625 0.433593,0.890625 -0.597656,0.17578125 -0.914062,0.59765625 -0.914062,0.99609375 0,0.71484375 0.984375,1.26562505 2.203125,1.26562505 1.171875,0 2.203125,-0.5039063 2.203125,-1.28906255 0,-0.33984375 -0.140625,-0.85546875 -0.644531,-1.125 -0.527344,-0.28125 -1.101563,-0.28125 -1.710938,-0.28125 -0.246094,0 -0.679687,0 -0.75,-0.0117188 -0.316406,-0.046875 -0.527344,-0.35156255 -0.527344,-0.66796865 z m 1.441407,3.1523437 c -1.007813,0 -1.699219,-0.515625 -1.699219,-1.04296875 0,-0.45703125 0.375,-0.8203125 0.820312,-0.85546875 h 0.585938 c 0.855469,0 1.96875,0 1.96875,0.85546875 0,0.53906255 -0.703125,1.04296875 -1.675781,1.04296875 z m 0,0"
       style="fill:#000000;fill-opacity:1;fill-rule:nonzero;stroke:none"
       aria-label="Spring"
       transform="matrix(1.3333333,0,0,1.3333333,85.506667,66.78)" />
    <path
       id="path17"
       d="m 7.1824062,-3.3738203 c 0,-2.0390625 -1.5,-3.6445313 -3.3164062,-3.6445313 -1.78125,0 -3.3046875,1.59375 -3.3046875,3.6445313 0,2.0390625 1.5351562,3.59765624 3.3046875,3.59765624 1.8164062,0 3.3164062,-1.58203124 3.3164062,-3.59765624 z m -3.3046875,3.33984374 c -0.9609375,0 -2.296875,-0.87890625 -2.296875,-3.48046874 0,-2.578125 1.453125,-3.2578125 2.2851563,-3.2578125 0.8671875,0 2.2851562,0.703125 2.2851562,3.2578125 0,2.63671874 -1.359375,3.48046874 -2.2734375,3.48046874 z M 9.4587734,-3.7488203 v -3.1640625 l -1.4296875,0.1054687 v 0.3164063 c 0.6914063,0 0.7734375,0.070312 0.7734375,0.5507812 v 5.94140629 h 0.2460938 c 0.011719,-0.01171875 0.09375,-0.15234375 0.3632812,-0.62109375 0.1523438,0.234375 0.5625,0.7265625 1.3007816,0.7265625 1.183593,0 2.226562,-0.97265625 2.226562,-2.26171874 0,-1.265625 -0.972656,-2.25 -2.109375,-2.25 -0.785156,0 -1.2070311,0.46875 -1.3710936,0.65625 z m 0.035156,2.6132812 v -2.0507812 c 0,-0.1875 0,-0.1992188 0.1054687,-0.3632813 0.3867188,-0.5507812 0.9374999,-0.6328125 1.1718749,-0.6328125 0.457032,0 0.808594,0.2578125 1.054688,0.6328125 0.257812,0.4101563 0.28125,0.984375 0.28125,1.3945313 0,0.3632812 -0.01172,0.9609375 -0.304688,1.40624999 -0.210937,0.31640625 -0.585937,0.64453125 -1.125,0.64453125 -0.445312,0 -0.8085936,-0.24609375 -1.0429686,-0.609375 -0.140625,-0.2109375 -0.140625,-0.24609375 -0.140625,-0.42187504 z m 6.4365236,-3.2695312 -1.523437,0.1171875 v 0.3046875 c 0.773437,0 0.855468,0.070312 0.855468,0.5625 v 3.93749999 c 0,0.4453125 -0.08203,1.31250001 -0.726562,1.31250001 -0.04687,0 -0.269531,0 -0.539063,-0.1289063 0.152344,-0.046875 0.351563,-0.1875 0.351563,-0.4570312 0,-0.25781251 -0.175781,-0.45703126 -0.457031,-0.45703126 -0.28125,0 -0.457032,0.19921875 -0.457032,0.45703126 0,0.515625 0.5625,0.796875 1.125,0.796875 0.75,0 1.371094,-0.6328125 1.371094,-1.53515626 z m 0,-1.734375 c 0,-0.28125 -0.246094,-0.5273438 -0.539062,-0.5273438 -0.28125,0 -0.527344,0.2460938 -0.527344,0.5273438 0,0.2929687 0.246094,0.5273437 0.527344,0.5273437 0.292968,0 0.539062,-0.234375 0.539062,-0.5273437 z m 2.05957,3.6328125 c 0.05859,-1.4882813 0.902344,-1.734375 1.242188,-1.734375 1.019531,0 1.125,1.3476562 1.125,1.734375 z m -0.01172,0.2109375 h 2.789062 c 0.210938,0 0.246094,0 0.246094,-0.2109375 0,-0.984375 -0.539063,-1.9570313 -1.78125,-1.9570313 -1.160156,0 -2.074219,1.03125 -2.074219,2.2734375 0,1.33593754 1.042969,2.29687504 2.191406,2.29687504 1.21875,0 1.664063,-1.1015625 1.664063,-1.28906254 0,-0.1054687 -0.08203,-0.1171875 -0.128906,-0.1171875 -0.09375,0 -0.117188,0.058594 -0.128907,0.140625 -0.351562,1.01953129 -1.253906,1.01953129 -1.347656,1.01953129 -0.503906,0 -0.902344,-0.29296875 -1.125,-0.66796875 C 17.978305,-1.2878828 17.978305,-1.9441328 17.978305,-2.2956953 Z m 4.485351,0.1289062 c 0,-1.6289062 0.820313,-2.0507812 1.347656,-2.0507812 0.09375,0 0.714844,0.011719 1.066407,0.375 -0.410157,0.023437 -0.46875,0.328125 -0.46875,0.4570312 0,0.2578125 0.1875,0.4570313 0.457031,0.4570313 0.257812,0 0.457031,-0.1640625 0.457031,-0.46875 0,-0.6796875 -0.75,-1.0664063 -1.523437,-1.0664063 -1.242188,0 -2.15625,1.078125 -2.15625,2.3085938 0,1.27734374 0.984375,2.26171874 2.144531,2.26171874 1.335937,0 1.652344,-1.19531254 1.652344,-1.28906254 0,-0.1054687 -0.105469,-0.1054687 -0.128907,-0.1054687 -0.09375,0 -0.117187,0.046875 -0.128906,0.1054687 -0.292969,0.92578129 -0.9375,1.04296879 -1.3125,1.04296879 -0.527344,0 -1.40625,-0.421875 -1.40625,-2.02734379 z m 5.000977,-1.8164062 h 1.429687 v -0.3046875 h -1.429687 v -1.8398438 h -0.246094 c -0.01172,0.8203125 -0.316406,1.8867188 -1.289062,1.921875 v 0.2226563 h 0.84375 v 2.7539062 c 0,1.21875004 0.925781,1.33593754 1.289062,1.33593754 0.703125,0 0.984375,-0.703125 0.984375,-1.33593754 V -1.8035078 H 28.80057 v 0.5507812 c 0,0.73828129 -0.304687,1.11328129 -0.667968,1.11328129 -0.667969,0 -0.667969,-0.90234379 -0.667969,-1.07812499 z m 0,0"
       style="fill:#000000;fill-opacity:1;fill-rule:nonzero;stroke:none"
       aria-label="Object"
       transform="matrix(1.3333333,0,0,1.3333333,96.845333,117.87733)" />
    <path
       id="path18"
       d="m 2.2629766,-3.1510859 h 1.6875 c 1.1953125,0 2.2617187,-0.796875 2.2617187,-1.7929688 0,-0.984375 -0.984375,-1.8632812 -2.34375,-1.8632812 H 0.35282031 v 0.3164062 h 0.234375 c 0.77343749,0 0.78515629,0.1054688 0.78515629,0.46875 v 5.25000001 c 0,0.3515625 -0.011719,0.46875 -0.78515629,0.46875 h -0.234375 v 0.3046875 c 0.3515625,-0.03515625 1.07812499,-0.03515625 1.46484379,-0.03515625 0.375,0 1.125,0 1.4765625,0.03515625 v -0.3046875 H 3.0481328 c -0.7617187,0 -0.7851562,-0.1171875 -0.7851562,-0.46875 z m -0.035156,-0.2578125 v -2.6835938 c 0,-0.328125 0.023437,-0.3984375 0.4921875,-0.3984375 h 0.890625 c 1.5820313,0 1.5820313,1.0546875 1.5820313,1.546875 0,0.4570313 0,1.5351563 -1.5820313,1.5351563 z m 5.6542969,2.64843746 c 0,0.45703125 -0.1171875,0.45703125 -0.7851563,0.45703125 v 0.3046875 c 0.3515625,-0.01171875 0.8554688,-0.03515625 1.125,-0.03515625 0.2578125,0 0.7851563,0.0234375 1.1132813,0.03515625 v -0.3046875 c -0.65625,0 -0.7734375,0 -0.7734375,-0.45703125 V -2.5885859 c 0,-1.03125 0.7148437,-1.59375 1.3476562,-1.59375 0.6210938,0 0.7382808,0.5390625 0.7382808,1.1015625 v 2.32031246 c 0,0.45703125 -0.117187,0.45703125 -0.773437,0.45703125 v 0.3046875 c 0.339843,-0.01171875 0.855468,-0.03515625 1.125,-0.03515625 0.257812,0 0.773437,0.0234375 1.113281,0.03515625 v -0.3046875 c -0.515625,0 -0.773438,0 -0.785156,-0.3046875 V -2.5065547 c 0,-0.8554687 0,-1.171875 -0.304688,-1.5234375 -0.140625,-0.1757812 -0.46875,-0.375 -1.0429683,-0.375 -0.84375,0 -1.2773437,0.5976563 -1.4414062,0.984375 v -3.4921875 l -1.4414063,0.1054688 v 0.3164062 c 0.703125,0 0.7851563,0.070312 0.7851563,0.5507813 z M 16.173133,-3.3503047 c 0.257812,-0.6210937 0.761719,-0.6328125 0.925781,-0.6328125 v -0.3046875 c -0.234375,0.011719 -0.515625,0.023437 -0.75,0.023437 -0.175781,0 -0.644531,-0.023437 -0.867187,-0.023437 v 0.3046875 c 0.304687,0.011719 0.46875,0.1757813 0.46875,0.4335938 0,0.09375 -0.01172,0.1171875 -0.05859,0.234375 L 14.88407,-0.86592969 13.782508,-3.5495234 c -0.04687,-0.09375 -0.05859,-0.140625 -0.05859,-0.1757813 0,-0.2578125 0.363281,-0.2578125 0.550781,-0.2578125 v -0.3046875 c -0.257812,0 -0.914062,0.023437 -1.078125,0.023437 -0.269531,0 -0.667968,-0.011719 -0.972656,-0.023437 v 0.3046875 c 0.480469,0 0.667969,0 0.808594,0.3515625 l 1.5,3.63281251 c -0.05859,0.12890625 -0.199219,0.45703125 -0.257813,0.5859375 -0.210937,0.55078129 -0.492187,1.24218749 -1.136718,1.24218749 -0.04687,0 -0.269532,0 -0.46875,-0.1875 0.316406,-0.035156 0.398437,-0.2578125 0.398437,-0.4101562 0,-0.26953129 -0.199219,-0.42187504 -0.421875,-0.42187504 -0.199219,0 -0.421875,0.12890625 -0.421875,0.42187504 0,0.4570312 0.421875,0.8085937 0.914063,0.8085937 0.632812,0 1.042968,-0.5625 1.277343,-1.13671874 z m 3.196289,1.4179688 c 0.222656,0.035156 1.03125,0.1992187 1.03125,0.9140625 0,0.51562496 -0.351563,0.91406246 -1.125,0.91406246 -0.832031,0 -1.195313,-0.57421875 -1.382813,-1.41796876 -0.03516,-0.1289062 -0.03516,-0.1757812 -0.140625,-0.1757812 -0.128906,0 -0.128906,0.070312 -0.128906,0.2578125 v 1.31249996 c 0,0.1640625 0,0.234375 0.105469,0.234375 0.05859,0 0.07031,0 0.257812,-0.19921875 0.01172,-0.01171875 0.01172,-0.03515625 0.199219,-0.22265625 0.433594,0.421875 0.878906,0.421875 1.089844,0.421875 1.148437,0 1.605469,-0.66796875 1.605469,-1.38281246 0,-0.5273438 -0.292969,-0.8203125 -0.421875,-0.9492188 -0.328125,-0.3164062 -0.714844,-0.3984375 -1.136719,-0.46875 -0.550781,-0.1171875 -1.21875,-0.2460937 -1.21875,-0.8203125 0,-0.3515625 0.257812,-0.7617187 1.113281,-0.7617187 1.101563,0 1.148438,0.9023437 1.171875,1.2070312 0,0.09375 0.09375,0.09375 0.117188,0.09375 0.128906,0 0.128906,-0.046875 0.128906,-0.2460937 v -0.9960938 c 0,-0.1757812 0,-0.2460937 -0.117188,-0.2460937 -0.04687,0 -0.07031,0 -0.199218,0.1171875 -0.02344,0.046875 -0.128907,0.1289062 -0.164063,0.1640625 -0.375,-0.28125 -0.785156,-0.28125 -0.9375,-0.28125 -1.21875,0 -1.59375,0.6679687 -1.59375,1.2304687 0,0.3398438 0.164063,0.6210938 0.433594,0.84375 0.316406,0.2578125 0.597656,0.3164063 1.3125,0.4570313 z m 3.612305,-2.4726563 -1.394532,0.1171875 v 0.3046875 c 0.65625,0 0.738282,0.058594 0.738282,0.5507813 v 2.67187496 c 0,0.45703125 -0.105469,0.45703125 -0.773438,0.45703125 v 0.3046875 c 0.316406,-0.01171875 0.855469,-0.03515625 1.101563,-0.03515625 0.339843,0 0.691406,0.0234375 1.03125,0.03515625 v -0.3046875 c -0.65625,0 -0.703125,-0.0585938 -0.703125,-0.4453125 z m 0.04687,-1.734375 c 0,-0.3164062 -0.246094,-0.5273437 -0.527344,-0.5273437 -0.316406,0 -0.527344,0.2695312 -0.527344,0.5273437 0,0.2695313 0.210938,0.5273438 0.527344,0.5273438 0.28125,0 0.527344,-0.1992188 0.527344,-0.5273438 z m 2.124023,3.9726563 c 0,-1.6289063 0.820312,-2.0507813 1.347656,-2.0507813 0.09375,0 0.714844,0.011719 1.066406,0.375 -0.410156,0.023437 -0.46875,0.328125 -0.46875,0.4570313 0,0.2578125 0.1875,0.4570312 0.457032,0.4570312 0.257812,0 0.457031,-0.1640625 0.457031,-0.46875 0,-0.6796875 -0.75,-1.0664062 -1.523438,-1.0664062 -1.242187,0 -2.15625,1.078125 -2.15625,2.3085937 0,1.27734376 0.984375,2.26171876 2.144532,2.26171876 1.335937,0 1.652343,-1.19531246 1.652343,-1.28906246 0,-0.1054688 -0.105468,-0.1054688 -0.128906,-0.1054688 -0.09375,0 -0.117187,0.046875 -0.128906,0.1054688 -0.292969,0.92578121 -0.9375,1.04296871 -1.3125,1.04296871 -0.527344,0 -1.40625,-0.421875 -1.40625,-2.02734371 z m 6.583008,1.40624996 c 0.03516,0.3984375 0.304687,0.8203125 0.773437,0.8203125 0.210938,0 0.820313,-0.140625 0.820313,-0.94921875 V -1.4401484 h -0.246094 v 0.55078121 c 0,0.5859375 -0.246094,0.64453125 -0.363281,0.64453125 -0.328125,0 -0.363281,-0.45703125 -0.363281,-0.50390625 V -2.7409297 c 0,-0.4101562 0,-0.8085937 -0.363282,-1.171875 -0.386718,-0.3867187 -0.878906,-0.5507812 -1.359375,-0.5507812 -0.820312,0 -1.511718,0.46875 -1.511718,1.125 0,0.3046875 0.199218,0.46875 0.457031,0.46875 0.28125,0 0.46875,-0.1992188 0.46875,-0.4570313 0,-0.1171875 -0.05859,-0.4453125 -0.515625,-0.4570312 0.269531,-0.3515625 0.761719,-0.4570313 1.078125,-0.4570313 0.492187,0 1.054687,0.3867188 1.054687,1.2773438 v 0.3632812 c -0.503906,0.035156 -1.207031,0.058594 -1.828125,0.3632813 -0.75,0.3398437 -0.996093,0.8554687 -0.996093,1.28906246 0,0.80859375 0.960937,1.0546875 1.59375,1.0546875 0.65625,0 1.113281,-0.3984375 1.300781,-0.8671875 z M 31.66532,-2.3893672 v 0.9960938 c 0,0.94921871 -0.714843,1.28906246 -1.160156,1.28906246 -0.492187,0 -0.902344,-0.3515625 -0.902344,-0.85546875 0,-0.53906251 0.421875,-1.37109371 2.0625,-1.42968751 z m 3.492188,-4.5234375 -1.429688,0.1054688 v 0.3164062 c 0.703125,0 0.773438,0.070312 0.773438,0.5507813 v 5.17968746 c 0,0.45703125 -0.105469,0.45703125 -0.773438,0.45703125 v 0.3046875 c 0.328125,-0.01171875 0.855469,-0.03515625 1.101563,-0.03515625 0.257812,0 0.738281,0.0234375 1.113281,0.03515625 v -0.3046875 c -0.667969,0 -0.785156,0 -0.785156,-0.45703125 z m 6.401367,4.9804688 c 0.222656,0.035156 1.03125,0.1992187 1.03125,0.9140625 0,0.51562496 -0.351563,0.91406246 -1.125,0.91406246 -0.832031,0 -1.195313,-0.57421875 -1.382813,-1.41796876 -0.03516,-0.1289062 -0.03516,-0.1757812 -0.140625,-0.1757812 -0.128906,0 -0.128906,0.070312 -0.128906,0.2578125 v 1.31249996 c 0,0.1640625 0,0.234375 0.105469,0.234375 0.05859,0 0.07031,0 0.257812,-0.19921875 0.01172,-0.01171875 0.01172,-0.03515625 0.199219,-0.22265625 0.433594,0.421875 0.878906,0.421875 1.089844,0.421875 1.148437,0 1.605469,-0.66796875 1.605469,-1.38281246 0,-0.5273438 -0.292969,-0.8203125 -0.421875,-0.9492188 -0.328125,-0.3164062 -0.714844,-0.3984375 -1.136719,-0.46875 -0.550781,-0.1171875 -1.21875,-0.2460937 -1.21875,-0.8203125 0,-0.3515625 0.257812,-0.7617187 1.113281,-0.7617187 1.101563,0 1.148438,0.9023437 1.171875,1.2070312 0,0.09375 0.09375,0.09375 0.117188,0.09375 0.128906,0 0.128906,-0.046875 0.128906,-0.2460937 v -0.9960938 c 0,-0.1757812 0,-0.2460937 -0.117188,-0.2460937 -0.04687,0 -0.07031,0 -0.199218,0.1171875 -0.02344,0.046875 -0.128907,0.1289062 -0.164063,0.1640625 -0.375,-0.28125 -0.785156,-0.28125 -0.9375,-0.28125 -1.21875,0 -1.59375,0.6679687 -1.59375,1.2304687 0,0.3398438 0.164063,0.6210938 0.433594,0.84375 0.316406,0.2578125 0.597656,0.3164063 1.3125,0.4570313 z m 3.624023,-2.4726563 -1.394531,0.1171875 v 0.3046875 c 0.65625,0 0.738281,0.058594 0.738281,0.5507813 v 2.67187496 c 0,0.45703125 -0.105468,0.45703125 -0.773437,0.45703125 v 0.3046875 c 0.316406,-0.01171875 0.855469,-0.03515625 1.101562,-0.03515625 0.339844,0 0.691407,0.0234375 1.03125,0.03515625 v -0.3046875 c -0.65625,0 -0.703125,-0.0585938 -0.703125,-0.4453125 z m 0.04687,-1.734375 c 0,-0.3164062 -0.246093,-0.5273437 -0.527343,-0.5273437 -0.316407,0 -0.527344,0.2695312 -0.527344,0.5273437 0,0.2695313 0.210937,0.5273438 0.527344,0.5273438 0.28125,0 0.527343,-0.1992188 0.527343,-0.5273438 z m 2.686524,2.15625 h 1.429687 v -0.3046875 h -1.429687 v -1.8398437 h -0.246094 c -0.01172,0.8203125 -0.316406,1.8867187 -1.289062,1.921875 v 0.2226562 h 0.84375 v 2.7539063 c 0,1.21874996 0.925781,1.33593746 1.289062,1.33593746 0.703125,0 0.984375,-0.703125 0.984375,-1.33593746 v -0.5742188 h -0.246094 v 0.5507813 c 0,0.73828121 -0.304687,1.11328121 -0.667968,1.11328121 -0.667969,0 -0.667969,-0.90234371 -0.667969,-1.07812501 z m 6.041015,3.19921876 v 0.890625 l 1.441407,-0.10546875 v -0.3046875 c -0.703125,0 -0.785157,-0.0703125 -0.785157,-0.5625 V -4.4049922 l -1.453125,0.1171875 v 0.3046875 c 0.691407,0 0.773438,0.070312 0.773438,0.5625 v 1.7695313 c 0,0.86718746 -0.480469,1.54687496 -1.207031,1.54687496 -0.832032,0 -0.878907,-0.46875 -0.878907,-0.99609376 v -3.3046875 l -1.464843,0.1171875 v 0.3046875 c 0.785156,0 0.785156,0.035156 0.785156,0.9140625 v 1.5 c 0,0.77343751 0,1.67578126 1.511719,1.67578126 0.550781,0 0.996093,-0.26953125 1.277343,-0.890625 z m 4.951172,0.0234375 c 0.03516,0.3984375 0.304688,0.8203125 0.773438,0.8203125 0.210937,0 0.820312,-0.140625 0.820312,-0.94921875 V -1.4401484 h -0.246093 v 0.55078121 c 0,0.5859375 -0.246094,0.64453125 -0.363282,0.64453125 -0.328125,0 -0.363281,-0.45703125 -0.363281,-0.50390625 V -2.7409297 c 0,-0.4101562 0,-0.8085937 -0.363281,-1.171875 -0.386719,-0.3867187 -0.878906,-0.5507812 -1.359375,-0.5507812 -0.820313,0 -1.511719,0.46875 -1.511719,1.125 0,0.3046875 0.199219,0.46875 0.457031,0.46875 0.28125,0 0.46875,-0.1992188 0.46875,-0.4570313 0,-0.1171875 -0.05859,-0.4453125 -0.515625,-0.4570312 0.269532,-0.3515625 0.761719,-0.4570313 1.078125,-0.4570313 0.492188,0 1.054688,0.3867188 1.054688,1.2773438 v 0.3632812 c -0.503906,0.035156 -1.207031,0.058594 -1.828125,0.3632813 -0.75,0.3398437 -0.996094,0.8554687 -0.996094,1.28906246 0,0.80859375 0.960938,1.0546875 1.59375,1.0546875 0.65625,0 1.113281,-0.3984375 1.300781,-0.8671875 z m -0.07031,-1.62890626 v 0.9960938 c 0,0.94921871 -0.714844,1.28906246 -1.160156,1.28906246 -0.492188,0 -0.902344,-0.3515625 -0.902344,-0.85546875 0,-0.53906251 0.421875,-1.37109371 2.0625,-1.42968751 z m 3.457031,-1.59375 h 1.429688 V -4.2878047 H 62.2952 v -1.8398437 h -0.246094 c -0.01172,0.8203125 -0.316406,1.8867187 -1.289062,1.921875 v 0.2226562 h 0.84375 v 2.7539063 c 0,1.21874996 0.925781,1.33593746 1.289062,1.33593746 0.703125,0 0.984375,-0.703125 0.984375,-1.33593746 v -0.5742188 h -0.246093 v 0.5507813 c 0,0.73828121 -0.304688,1.11328121 -0.667969,1.11328121 -0.667969,0 -0.667969,-0.90234371 -0.667969,-1.07812501 z m 3.911133,-0.421875 -1.394531,0.1171875 v 0.3046875 c 0.65625,0 0.738281,0.058594 0.738281,0.5507813 v 2.67187496 c 0,0.45703125 -0.105469,0.45703125 -0.773438,0.45703125 v 0.3046875 c 0.316407,-0.01171875 0.855469,-0.03515625 1.101563,-0.03515625 0.339844,0 0.691406,0.0234375 1.03125,0.03515625 v -0.3046875 c -0.65625,0 -0.703125,-0.0585938 -0.703125,-0.4453125 z m 0.04687,-1.734375 c 0,-0.3164062 -0.246094,-0.5273437 -0.527344,-0.5273437 -0.316406,0 -0.527344,0.2695312 -0.527344,0.5273437 0,0.2695313 0.210938,0.5273438 0.527344,0.5273438 0.28125,0 0.527344,-0.1992188 0.527344,-0.5273438 z m 5.651367,4.0078125 c 0,-1.2773437 -0.996094,-2.3320312 -2.191406,-2.3320312 -1.253906,0 -2.214844,1.0898437 -2.214844,2.3320312 0,1.28906251 1.03125,2.23828126 2.203125,2.23828126 1.207031,0 2.203125,-0.97265625 2.203125,-2.23828126 z m -2.191406,1.99218751 c -0.433594,0 -0.867188,-0.2109375 -1.136719,-0.66796875 -0.257812,-0.43359376 -0.257812,-1.04296876 -0.257812,-1.40624996 0,-0.3867188 0,-0.9257813 0.246093,-1.359375 0.269532,-0.4570313 0.738282,-0.6679688 1.136719,-0.6679688 0.433594,0 0.867188,0.2226563 1.125,0.6445313 0.257813,0.4335937 0.257813,1.0078125 0.257813,1.3828125 0,0.3632812 0,0.9023437 -0.222657,1.33593746 -0.222656,0.4453125 -0.65625,0.73828125 -1.148437,0.73828125 z m 3.585937,-3.28125001 v 2.66015626 c 0,0.45703125 -0.117187,0.45703125 -0.785156,0.45703125 v 0.3046875 c 0.351563,-0.01171875 0.855469,-0.03515625 1.125,-0.03515625 0.257813,0 0.785156,0.0234375 1.113281,0.03515625 v -0.3046875 c -0.65625,0 -0.773437,0 -0.773437,-0.45703125 V -2.5885859 c 0,-1.03125 0.714844,-1.59375 1.347656,-1.59375 0.621094,0 0.738281,0.5390625 0.738281,1.1015625 v 2.32031246 c 0,0.45703125 -0.117187,0.45703125 -0.773437,0.45703125 v 0.3046875 c 0.339844,-0.01171875 0.855469,-0.03515625 1.125,-0.03515625 0.257812,0 0.773437,0.0234375 1.113281,0.03515625 v -0.3046875 c -0.515625,0 -0.773437,0 -0.785156,-0.3046875 V -2.5065547 c 0,-0.8554687 0,-1.171875 -0.304688,-1.5234375 -0.140625,-0.1757812 -0.46875,-0.375 -1.042968,-0.375 -0.726563,0 -1.195313,0.4335938 -1.476563,1.0546875 v -1.0546875 l -1.40625,0.1171875 v 0.3046875 c 0.703125,0 0.785156,0.070312 0.785156,0.5625 z m 0,0"
       style="fill:#000000;fill-opacity:1;fill-rule:nonzero;stroke:none"
       aria-label="Physicalsituation"
       transform="matrix(1.3333333,0,0,1.3333333,17.650667,151.15067)" />
    <path
       id="path19"
       d="m 56.69362,42.5202 h 53.50552"
       style="fill:none;stroke:#000000;stroke-width:1.19553;stroke-linecap:butt;stroke-linejoin:miter;stroke-miterlimit:10;stroke-dasharray:none;stroke-opacity:1"
       transform="matrix(1.3333333,0,0,-1.3333333,69.474667,150.46267)" />
    <path
       id="path20"
       d="M 3.18808,0 -1.91284,2.55046 0,0 -1.91284,-2.55046"
       style="fill:#000000;fill-opacity:1;fill-rule:nonzero;stroke:none"
       transform="matrix(1.3333333,0,0,-1.3333333,216.40685,93.769067)" />
    <path
       id="path21"
       d="m 2.2384844,-6.0242969 c 0,-0.3632812 0.035156,-0.46875 0.8203125,-0.46875 h 0.2578125 v -0.3164062 c -0.3515625,0.035156 -1.1367188,0.035156 -1.5117188,0.035156 -0.3867187,0 -1.17187498,0 -1.52343748,-0.035156 v 0.3164062 h 0.2578125 c 0.78515628,0 0.82031248,0.1054688 0.82031248,0.46875 v 5.25000003 c 0,0.3515625 -0.035156,0.46875 -0.82031248,0.46875 H 0.28145312 V -8.59375e-4 C 0.63301562,-0.03601562 1.4181719,-0.03601562 1.7931719,-0.03601562 c 0.3867187,0 1.171875,0 1.5234375,0.035156245 V -0.30554687 H 3.0587969 c -0.7851563,0 -0.8203125,-0.1171875 -0.8203125,-0.46875 z m 3.4335937,4.0898438 c 0.2226563,0.035156 1.03125,0.1992187 1.03125,0.9140625 0,0.51562498 -0.3515625,0.91406248 -1.125,0.91406248 -0.8320312,0 -1.1953125,-0.57421875 -1.3828125,-1.41796878 -0.035156,-0.1289062 -0.035156,-0.1757812 -0.140625,-0.1757812 -0.1289062,0 -0.1289062,0.070312 -0.1289062,0.2578125 v 1.31249998 c 0,0.1640625 0,0.234375 0.1054687,0.234375 0.058594,0 0.070312,0 0.2578125,-0.19921875 0.011719,-0.01171875 0.011719,-0.03515625 0.1992188,-0.22265625 0.4335937,0.421875 0.8789062,0.421875 1.0898437,0.421875 1.1484375,0 1.6054688,-0.66796875 1.6054688,-1.38281248 0,-0.5273438 -0.2929688,-0.8203125 -0.421875,-0.9492188 -0.328125,-0.3164062 -0.7148438,-0.3984375 -1.1367188,-0.46875 -0.5507812,-0.1171875 -1.21875,-0.2460937 -1.21875,-0.8203125 0,-0.3515625 0.2578125,-0.7617187 1.1132813,-0.7617187 1.1015625,0 1.1484375,0.9023437 1.171875,1.2070312 0,0.09375 0.09375,0.09375 0.1171875,0.09375 0.1289062,0 0.1289062,-0.046875 0.1289062,-0.2460937 v -0.9960938 c 0,-0.1757812 0,-0.2460937 -0.1171875,-0.2460937 -0.046875,0 -0.070312,0 -0.1992187,0.1171875 -0.023437,0.046875 -0.1289063,0.1289062 -0.1640625,0.1640625 -0.375,-0.28125 -0.7851563,-0.28125 -0.9375,-0.28125 -1.21875,0 -1.59375,0.6679687 -1.59375,1.2304687 0,0.3398438 0.1640625,0.6210938 0.4335937,0.84375 0.3164063,0.2578125 0.5976563,0.3164063 1.3125,0.4570313 z M 12.21407,-2.1336719 c 0,-1.2773437 -0.996093,-2.3320312 -2.191406,-2.3320312 -1.2539062,0 -2.2148437,1.0898437 -2.2148437,2.3320312 0,1.28906253 1.03125,2.23828128 2.2031247,2.23828128 1.207032,0 2.203125,-0.97265625 2.203125,-2.23828128 z m -2.191406,1.99218753 c -0.4335937,0 -0.8671874,-0.2109375 -1.1367187,-0.66796875 C 8.6281328,-1.2430469 8.6281328,-1.8524219 8.6281328,-2.2157031 c 0,-0.3867188 0,-0.9257813 0.2460938,-1.359375 0.2695312,-0.4570313 0.7382812,-0.6679688 1.1367184,-0.6679688 0.433594,0 0.867188,0.2226563 1.125,0.6445313 0.257813,0.4335937 0.257813,1.0078125 0.257813,1.3828125 0,0.3632812 0,0.9023437 -0.222656,1.33593748 -0.222657,0.4453125 -0.65625,0.73828125 -1.148438,0.73828125 z m 4.242188,-6.77343753 -1.429688,0.1054688 v 0.3164062 c 0.703125,0 0.773438,0.070312 0.773438,0.5507813 v 5.17968748 c 0,0.45703125 -0.105469,0.45703125 -0.773438,0.45703125 v 0.304687495 c 0.328125,-0.011718745 0.855469,-0.035156245 1.101563,-0.035156245 0.257812,0 0.738281,0.0234375 1.113281,0.035156245 V -0.30554687 c -0.667969,0 -0.785156,0 -0.785156,-0.45703125 z M 18.592,-0.76257812 c 0.03516,0.3984375 0.304687,0.8203125 0.773437,0.8203125 0.210938,0 0.820313,-0.140625 0.820313,-0.94921875 V -1.4422656 h -0.246094 v 0.55078123 c 0,0.5859375 -0.246094,0.64453125 -0.363281,0.64453125 -0.328125,0 -0.363281,-0.45703125 -0.363281,-0.50390625 V -2.7430469 c 0,-0.4101562 0,-0.8085937 -0.363282,-1.171875 -0.386718,-0.3867187 -0.878906,-0.5507812 -1.359375,-0.5507812 -0.820312,0 -1.511718,0.46875 -1.511718,1.125 0,0.3046875 0.199218,0.46875 0.457031,0.46875 0.28125,0 0.46875,-0.1992188 0.46875,-0.4570313 0,-0.1171875 -0.05859,-0.4453125 -0.515625,-0.4570312 0.269531,-0.3515625 0.761719,-0.4570313 1.078125,-0.4570313 0.492187,0 1.054687,0.3867188 1.054687,1.2773438 v 0.3632812 c -0.503906,0.035156 -1.207031,0.058594 -1.828125,0.3632813 -0.75,0.3398437 -0.996093,0.8554687 -0.996093,1.28906248 0,0.80859375 0.960937,1.0546875 1.59375,1.0546875 0.65625,0 1.113281,-0.3984375 1.300781,-0.8671875 z M 18.52169,-2.3914844 v 0.9960938 c 0,0.94921873 -0.714843,1.28906248 -1.160156,1.28906248 -0.492187,0 -0.902344,-0.3515625 -0.902344,-0.85546875 0,-0.53906253 0.421875,-1.37109373 2.0625,-1.42968753 z m 3.457032,-1.59375 h 1.429687 v -0.3046875 h -1.429687 v -1.8398437 h -0.246094 c -0.01172,0.8203125 -0.316406,1.8867187 -1.289063,1.921875 v 0.2226562 h 0.84375 v 2.7539063 c 0,1.21874998 0.925782,1.33593748 1.289063,1.33593748 0.703125,0 0.984375,-0.703125 0.984375,-1.33593748 v -0.5742188 h -0.246094 v 0.5507813 c 0,0.73828123 -0.304687,1.11328123 -0.667969,1.11328123 -0.667968,0 -0.667968,-0.90234373 -0.667968,-1.07812503 z m 3.266601,1.4765625 c 0.05859,-1.4882812 0.902344,-1.734375 1.242188,-1.734375 1.019531,0 1.125,1.3476563 1.125,1.734375 z m -0.01172,0.2109375 h 2.789062 c 0.210938,0 0.246094,0 0.246094,-0.2109375 0,-0.984375 -0.539063,-1.9570312 -1.78125,-1.9570312 -1.160156,0 -2.074219,1.03125 -2.074219,2.2734375 0,1.33593748 1.042969,2.29687498 2.191406,2.29687498 1.21875,0 1.664063,-1.1015625 1.664063,-1.28906248 0,-0.1054688 -0.08203,-0.1171875 -0.128906,-0.1171875 -0.09375,0 -0.117188,0.058594 -0.128907,0.140625 -0.351562,1.01953123 -1.253906,1.01953123 -1.347656,1.01953123 -0.503906,0 -0.902344,-0.29296875 -1.125,-0.66796875 C 25.233602,-1.2899219 25.233602,-1.9461719 25.233603,-2.2977344 Z m 11.329101,0.1640625 c 0,-1.2773437 -0.996094,-2.3320312 -2.191406,-2.3320312 -1.253906,0 -2.214844,1.0898437 -2.214844,2.3320312 0,1.28906253 1.03125,2.23828128 2.203125,2.23828128 1.207031,0 2.203125,-0.97265625 2.203125,-2.23828128 z m -2.191406,1.99218753 c -0.433594,0 -0.867188,-0.2109375 -1.136719,-0.66796875 -0.257812,-0.43359378 -0.257812,-1.04296878 -0.257812,-1.40624998 0,-0.3867188 0,-0.9257813 0.246093,-1.359375 0.269532,-0.4570313 0.738282,-0.6679688 1.136719,-0.6679688 0.433594,0 0.867188,0.2226563 1.125,0.6445313 0.257813,0.4335937 0.257813,1.0078125 0.257813,1.3828125 0,0.3632812 0,0.9023437 -0.222657,1.33593748 -0.222656,0.4453125 -0.65625,0.73828125 -1.148437,0.73828125 z M 38.56954,-3.7508594 v -3.1640625 l -1.429687,0.1054688 v 0.3164062 c 0.691406,0 0.773437,0.070312 0.773437,0.5507813 v 5.941406225 h 0.246094 c 0.01172,-0.011718745 0.09375,-0.152343745 0.363281,-0.621093745 0.152344,0.234375 0.5625,0.7265625 1.300781,0.7265625 1.183594,0 2.226563,-0.97265625 2.226563,-2.26171878 0,-1.265625 -0.972656,-2.25 -2.109375,-2.25 -0.785156,0 -1.207031,0.46875 -1.371094,0.65625 z m 0.03516,2.6132813 v -2.0507813 c 0,-0.1875 0,-0.1992187 0.105469,-0.3632812 0.386719,-0.5507813 0.9375,-0.6328125 1.171875,-0.6328125 0.457031,0 0.808594,0.2578125 1.054688,0.6328125 0.257812,0.4101562 0.28125,0.984375 0.28125,1.3945312 0,0.3632813 -0.01172,0.9609375 -0.304688,1.40625003 -0.210937,0.31640625 -0.585937,0.64453125 -1.125,0.64453125 -0.445312,0 -0.808594,-0.24609375 -1.042969,-0.609375 C 38.6047,-0.92664062 38.6047,-0.96179687 38.6047,-1.1375781 Z m 6.442383,-3.2695313 -1.523437,0.1171875 v 0.3046875 c 0.773437,0 0.855468,0.070312 0.855468,0.5625 v 3.93750003 c 0,0.4453125 -0.08203,1.31249997 -0.726562,1.31249997 -0.04687,0 -0.269531,0 -0.539063,-0.1289062 0.152344,-0.046875 0.351563,-0.1875 0.351563,-0.4570313 0,-0.25781247 -0.175781,-0.45703122 -0.457031,-0.45703122 -0.28125,0 -0.457032,0.19921875 -0.457032,0.45703122 0,0.515625 0.5625,0.796875 1.125,0.796875 0.75,0 1.371094,-0.6328125 1.371094,-1.53515622 z m 0,-1.734375 c 0,-0.28125 -0.246094,-0.5273437 -0.539062,-0.5273437 -0.28125,0 -0.527344,0.2460937 -0.527344,0.5273437 0,0.2929688 0.246094,0.5273438 0.527344,0.5273438 0.292968,0 0.539062,-0.234375 0.539062,-0.5273438 z m 2.0625,3.6328125 c 0.05859,-1.4882812 0.902344,-1.734375 1.242188,-1.734375 1.019531,0 1.125,1.3476563 1.125,1.734375 z m -0.01172,0.2109375 h 2.789063 c 0.210937,0 0.246094,0 0.246094,-0.2109375 0,-0.984375 -0.539063,-1.9570312 -1.78125,-1.9570312 -1.160157,0 -2.074219,1.03125 -2.074219,2.2734375 0,1.33593748 1.042969,2.29687498 2.191406,2.29687498 1.21875,0 1.664063,-1.1015625 1.664063,-1.28906248 0,-0.1054688 -0.08203,-0.1171875 -0.128907,-0.1171875 -0.09375,0 -0.117187,0.058594 -0.128906,0.140625 -0.351562,1.01953123 -1.253906,1.01953123 -1.347656,1.01953123 -0.503906,0 -0.902344,-0.29296875 -1.125,-0.66796875 C 47.097859,-1.2899219 47.097859,-1.9461719 47.097859,-2.2977344 Z m 4.485352,0.1289063 c 0,-1.6289063 0.820312,-2.0507813 1.347656,-2.0507813 0.09375,0 0.714844,0.011719 1.066406,0.375 -0.410156,0.023437 -0.46875,0.328125 -0.46875,0.4570313 0,0.2578125 0.1875,0.4570312 0.457032,0.4570312 0.257812,0 0.457031,-0.1640625 0.457031,-0.46875 0,-0.6796875 -0.75,-1.0664062 -1.523438,-1.0664062 -1.242187,0 -2.15625,1.078125 -2.15625,2.3085937 0,1.27734378 0.984375,2.26171878 2.144532,2.26171878 1.335937,0 1.652343,-1.19531248 1.652343,-1.28906248 0,-0.1054688 -0.105468,-0.1054688 -0.128906,-0.1054688 -0.09375,0 -0.117187,0.046875 -0.128906,0.1054688 -0.292969,0.92578123 -0.9375,1.04296873 -1.3125,1.04296873 -0.527344,0 -1.40625,-0.421875 -1.40625,-2.02734373 z m 4.989258,-1.8164063 h 1.429687 v -0.3046875 h -1.429687 v -1.8398437 h -0.246094 c -0.01172,0.8203125 -0.316406,1.8867187 -1.289063,1.921875 v 0.2226562 h 0.84375 v 2.7539063 c 0,1.21874998 0.925782,1.33593748 1.289063,1.33593748 0.703125,0 0.984375,-0.703125 0.984375,-1.33593748 V -1.8055469 H 57.90841 v 0.5507813 c 0,0.73828123 -0.304687,1.11328123 -0.667969,1.11328123 -0.667968,0 -0.667968,-0.90234373 -0.667968,-1.07812503 z m 0,0"
       style="fill:#000000;fill-opacity:1;fill-rule:nonzero;stroke:none"
       aria-label="Isolateobject"
       transform="matrix(1.3333333,0,0,1.3333333,143.71067,86.493333)" />
    <path
       id="path22"
       d="m 151.65567,21.2601 v 36.85092 h 36.85048 V 21.2601 Z"
       style="fill:#e6e6e6;fill-opacity:1;fill-rule:nonzero;stroke:#000000;stroke-width:0.79701;stroke-linecap:butt;stroke-linejoin:miter;stroke-miterlimit:10;stroke-dasharray:none;stroke-opacity:1"
       transform="matrix(1.3333333,0,0,-1.3333333,69.474667,150.46267)" />
    <path
       id="path23"
       d="m 0.87845313,-0.58532031 c -0.0351563,0.15234375 -0.09375,0.375 -0.09375,0.421875 0,0.1875 0.140625,0.26953125 0.29296877,0.26953125 0.1171875,0 0.2929687,-0.0703125 0.3632812,-0.26953125 0.011719,-0.0234375 0.1289063,-0.4921875 0.1875,-0.73828125 L 1.8511094,-1.8040703 c 0.058594,-0.2226563 0.1171875,-0.4335938 0.1757812,-0.6679688 0.035156,-0.1640625 0.1171875,-0.4570312 0.1289063,-0.4921875 0.140625,-0.3164062 0.6679687,-1.21875 1.6171875,-1.21875 0.4453125,0 0.5390625,0.3632813 0.5390625,0.6914063 0,0.2578125 -0.070312,0.5390625 -0.1523438,0.8320312 l -0.2695312,1.1601563 -0.1992188,0.74999999 c -0.046875,0.19921875 -0.140625,0.5390625 -0.140625,0.5859375 0,0.1875 0.140625,0.26953125 0.2929688,0.26953125 0.3046875,0 0.375,-0.24609375 0.4453125,-0.5625 0.140625,-0.56250004 0.515625,-2.01562504 0.5976562,-2.40234374 0.035156,-0.1289063 0.5625,-1.3242188 1.6523438,-1.3242188 0.421875,0 0.5390625,0.3398438 0.5390625,0.6914063 0,0.5742187 -0.421875,1.7109375 -0.6210938,2.2382812 -0.09375,0.234375 -0.1289062,0.35156254 -0.1289062,0.55078129 0,0.46875 0.3515625,0.80859375 0.8085937,0.80859375 0.9375,0 1.3125,-1.45312504 1.3125,-1.53515624 0,-0.09375 -0.09375,-0.09375 -0.1171875,-0.09375 -0.1054687,0 -0.1054687,0.023437 -0.1523437,0.1757812 -0.1523438,0.52734379 -0.46875,1.24218754 -1.0195313,1.24218754 -0.1640625,0 -0.234375,-0.10546875 -0.234375,-0.328125 0,-0.2578125 0.082031,-0.4921875 0.1757813,-0.71484374 0.1875,-0.515625 0.609375,-1.6171875 0.609375,-2.1914063 0,-0.6445312 -0.3984375,-1.0664062 -1.1484375,-1.0664062 -0.75,0 -1.2539063,0.4453125 -1.6171875,0.9726562 -0.011719,-0.1289062 -0.046875,-0.46875 -0.328125,-0.7148437 -0.2460938,-0.1992188 -0.5625,-0.2578125 -0.8085938,-0.2578125 -0.9023437,0 -1.3828125,0.6445312 -1.5585937,0.8671875 -0.046875,-0.5625 -0.46875,-0.8671875 -0.9140625,-0.8671875 -0.45703127,0 -0.64453127,0.3867187 -0.73828127,0.5742187 -0.17578125,0.3398438 -0.3046875,0.9375 -0.3046875,0.9609375 0,0.1054688 0.09375,0.1054688 0.1171875,0.1054688 0.09375,0 0.10546875,-0.011719 0.1640625,-0.234375 0.17578125,-0.703125 0.375,-1.1835938 0.72656247,-1.1835938 0.1640625,0 0.3164063,0.082031 0.3164063,0.4570313 0,0.2109375 -0.035156,0.3164062 -0.1640625,0.8320312 z m 0,0"
       style="fill:#000000;fill-opacity:1;fill-rule:nonzero;stroke:none"
       aria-label="m"
       transform="matrix(1.3333333,0,0,1.3333333,290.41467,100.40933)" />
    <path
       id="path24"
       d="M 170.08092,58.11102 V 86.702"
       style="fill:none;stroke:#000000;stroke-width:0.79701;stroke-linecap:butt;stroke-linejoin:miter;stroke-miterlimit:10;stroke-dasharray:none;stroke-opacity:1"
       transform="matrix(1.3333333,0,0,-1.3333333,69.474667,150.46267)" />
    <path
       id="path25"
       d="M 2.59026,0 -1.55415,2.0722 0,0 -1.55415,-2.0722"
       style="fill:#000000;fill-opacity:1;fill-rule:nonzero;stroke:none"
       transform="matrix(0,-1.3333333,-1.3333333,0,296.24923,34.86)" />
    <g
       id="g25"
       aria-label="F&#10;s"
       transform="matrix(1.3333333,0,0,1.3333333,304.71867,53.846667)">
      <path
         id="path26"
         d="m 3.0235,-3.2336328 h 0.9609375 c 0.75,0 0.8320313,0.1523437 0.8320313,0.4453125 0,0.070312 0,0.1875 -0.070312,0.4921875 -0.023437,0.046875 -0.035156,0.082031 -0.035156,0.1054687 0,0.082031 0.058594,0.1171875 0.1171875,0.1171875 0.1054688,0 0.1054688,-0.023437 0.1523438,-0.2109375 l 0.5507812,-2.15625 C 5.55475,-4.5461328 5.55475,-4.5695703 5.55475,-4.6047266 c 0,-0.011719 -0.011719,-0.1054687 -0.1171875,-0.1054687 -0.09375,0 -0.1054687,0.046875 -0.1523437,0.2109375 C 5.086,-3.7258203 4.851625,-3.5500391 4.007875,-3.5500391 H 3.0938125 l 0.6445313,-2.53125 c 0.082031,-0.3398437 0.09375,-0.3867187 0.5390625,-0.3867187 h 1.3125 c 1.21875,0 1.453125,0.328125 1.453125,1.1015625 0,0.2226562 0,0.2695312 -0.035156,0.5390625 -0.011719,0.1289062 -0.011719,0.140625 -0.011719,0.1757812 0,0.046875 0.023437,0.1171875 0.1171875,0.1171875 0.1054687,0 0.1171875,-0.058594 0.140625,-0.2460937 L 7.4531875,-6.5031641 C 7.476625,-6.7726953 7.42975,-6.7726953 7.1836563,-6.7726953 H 2.2969375 c -0.1992187,0 -0.2929687,0 -0.2929687,0.1992187 0,0.1054688 0.09375,0.1054688 0.28125,0.1054688 0.3632812,0 0.6445312,0 0.6445312,0.1875 0,0.035156 0,0.058594 -0.046875,0.234375 l -1.3242187,5.27343749 c -0.09375,0.38671875 -0.1171875,0.46875 -0.9023438,0.46875 -0.1640625,0 -0.28125,0 -0.28125,0.1875 0,0.1171874975 0.12890625,0.1171874975 0.15234375,0.1171874975 0.29296875,0 1.03125005,-0.0351562475 1.31250005,-0.0351562475 0.328125,0 1.1601562,0.0351562475 1.4882812,0.0351562475 0.09375,0 0.2109375,0 0.2109375,-0.1874999975 0,-0.0820313 -0.058594,-0.10546875 -0.058594,-0.1171875 -0.035156,0 -0.058594,0 -0.28125,0 -0.2226563,0 -0.2695313,0 -0.515625,-0.0234375 -0.2929688,-0.0351563 -0.328125,-0.0703125 -0.328125,-0.19921875 0,-0.0234375 0,-0.0820313 0.046875,-0.234375 z m 0,0"
         style="fill:#000000;fill-opacity:1;fill-rule:nonzero;stroke:none" />
      <path
         id="path27"
         d="m 9.4072891,-1.1301172 c -0.1757813,0.046875 -0.2929688,0.18750001 -0.2929688,0.32812501 0,0.1640625 0.140625,0.22265625 0.234375,0.22265625 0.070312,0 0.3398438,-0.0351563 0.3398438,-0.3984375 0,-0.44531246 -0.5039063,-0.59765626 -0.9257813,-0.59765626 -1.0898437,0 -1.2890625,0.79687501 -1.2890625,1.00781251 0,0.2578125 0.1523438,0.43359375 0.2460938,0.515625 0.1757812,0.140625 0.3046875,0.1640625 0.7851562,0.24609375 0.1523438,0.0351563 0.5976563,0.1171875 0.5976563,0.46875 0,0.1171875 -0.082031,0.37500004 -0.375,0.55078124 -0.2695313,0.1523438 -0.609375,0.1523438 -0.6914063,0.1523438 -0.28125,0 -0.6796875,-0.058594 -0.84375,-0.2929688 0.234375,-0.023437 0.3867188,-0.19921874 0.3867188,-0.39843749 0,-0.1640625 -0.1289063,-0.2578125 -0.2695313,-0.2578125 -0.1992187,0 -0.4101562,0.1640625 -0.4101562,0.46875 0,0.42187499 0.4453125,0.67968749 1.125,0.67968749 1.2890625,0 1.5234375,-0.87890624 1.5234375,-1.14843749 0,-0.64453125 -0.703125,-0.7734375 -0.9609375,-0.8203125 -0.070312,-0.0117188 -0.2460938,-0.0351563 -0.28125,-0.0585938 -0.2578125,-0.046875 -0.3867188,-0.1875 -0.3867188,-0.33984375 0,-0.1640625 0.1289063,-0.35156246 0.28125,-0.44531246 0.1875,-0.1289063 0.4335938,-0.1406251 0.5507813,-0.1406251 0.140625,0 0.5039062,0.023437 0.65625,0.2578126 z m 0,0"
         style="fill:#000000;fill-opacity:1;fill-rule:nonzero;stroke:none" />
    </g>
    <path
       id="path28"
       d="M 170.08092,21.2601 V -7.33128"
       style="fill:none;stroke:#000000;stroke-width:0.79701;stroke-linecap:butt;stroke-linejoin:miter;stroke-miterlimit:10;stroke-dasharray:none;stroke-opacity:1"
       transform="matrix(1.3333333,0,0,-1.3333333,69.474667,150.46267)" />
    <path
       id="path29"
       d="M 2.59026,0 -1.55415,2.0722 0,0 -1.55415,-2.0722"
       style="fill:#000000;fill-opacity:1;fill-rule:nonzero;stroke:none"
       transform="matrix(0,1.3333333,1.3333333,0,296.24923,160.23771)" />
    <g
       id="g29"
       aria-label="W=mg"
       transform="matrix(1.3333333,0,0,1.3333333,304.71867,146.15067)">
      <path
         id="path30"
         d="m 9.1289688,-5.6471797 c 0.2578125,-0.4335937 0.4921875,-0.796875 1.1250002,-0.84375 0.08203,-0.011719 0.1875,-0.011719 0.1875,-0.1992187 0,-0.046875 -0.04687,-0.1171875 -0.117188,-0.1171875 -0.246093,0 -0.5273435,0.035156 -0.7734372,0.035156 -0.3398438,0 -0.703125,-0.035156 -1.03125,-0.035156 -0.058594,0 -0.1875,0 -0.1875,0.1992187 0,0.1054688 0.082031,0.1171875 0.140625,0.1171875 0.2460937,0.011719 0.5976562,0.082031 0.5976562,0.3867188 0,0.1054687 -0.058594,0.1875 -0.140625,0.328125 l -2.6835937,4.6875 -0.3632813,-4.9335938 c -0.011719,-0.1992187 -0.035156,-0.4570312 0.6914063,-0.46875 0.1640625,0 0.2695312,0 0.2695312,-0.1992187 0,-0.1054688 -0.1054687,-0.1171875 -0.1523437,-0.1171875 -0.3984375,0 -0.8085938,0.035156 -1.2070313,0.035156 -0.234375,0 -0.8203125,-0.035156 -1.0546875,-0.035156 -0.058594,0 -0.1875,0 -0.1875,0.1992187 0,0.1171875 0.1054688,0.1171875 0.2460938,0.1171875 0.4335937,0 0.5039062,0.058594 0.5273437,0.2460938 L 5.0742813,-5.4831172 2.55475,-1.0885859 2.1680313,-6.1393672 c 0,-0.1171875 0,-0.3398437 0.7617187,-0.3515625 0.09375,0 0.2109375,0 0.2109375,-0.1992187 0,-0.1171875 -0.1171875,-0.1171875 -0.140625,-0.1171875 -0.3984375,0 -0.8203125,0.035156 -1.2304687,0.035156 -0.3398438,0 -0.703125,-0.035156 -1.0429688,-0.035156 -0.046875,0 -0.17578125,0 -0.17578125,0.1992187 0,0.1171875 0.0820313,0.1171875 0.24609375,0.1171875 0.5039063,0 0.5039063,0.082031 0.5273438,0.3632813 l 0.4453125,6.09374996 c 0.011719,0.17578125 0.023437,0.2578125 0.1640625,0.2578125 0.1171875,0 0.1523437,-0.0585938 0.234375,-0.2109375 l 2.9296875,-5.08593746 0.375,5.03906246 c 0.011719,0.19921875 0.035156,0.2578125 0.1523437,0.2578125 0.1289063,0 0.1875,-0.10546875 0.2460938,-0.1875 z m 0,0"
         style="fill:#000000;fill-opacity:1;fill-rule:nonzero;stroke:none" />
      <path
         id="path31"
         d="m 20.408266,-3.2565547 c 0.152343,0 0.339843,0 0.339843,-0.1992187 0,-0.1992188 -0.1875,-0.1992188 -0.328125,-0.1992188 h -5.964843 c -0.140625,0 -0.328125,0 -0.328125,0.1992188 0,0.1992187 0.1875,0.1992187 0.339843,0.1992187 z m 0.01172,1.9335938 c 0.140625,0 0.328125,0 0.328125,-0.1992188 0,-0.1992187 -0.1875,-0.1992187 -0.339843,-0.1992187 h -5.941407 c -0.152343,0 -0.339843,0 -0.339843,0.1992187 0,0.1992188 0.1875,0.1992188 0.328125,0.1992188 z m 0,0"
         style="fill:#000000;fill-opacity:1;fill-rule:nonzero;stroke:none" />
      <path
         id="path32"
         d="m 24.949281,-0.58467969 c -0.03516,0.15234375 -0.09375,0.375 -0.09375,0.421875 0,0.1875 0.140625,0.26953125 0.292969,0.26953125 0.117188,0 0.292969,-0.0703125 0.363281,-0.26953125 0.01172,-0.0234375 0.128907,-0.4921875 0.1875,-0.73828125 l 0.222657,-0.90234376 c 0.05859,-0.2226562 0.117187,-0.4335937 0.175781,-0.6679687 0.03516,-0.1640625 0.117187,-0.4570313 0.128906,-0.4921875 0.140625,-0.3164063 0.667969,-1.21875 1.617188,-1.21875 0.445312,0 0.539062,0.3632812 0.539062,0.6914062 0,0.2578125 -0.07031,0.5390625 -0.152344,0.8320313 L 27.961,-1.4987422 27.761781,-0.74874219 c -0.04687,0.19921875 -0.140625,0.5390625 -0.140625,0.5859375 0,0.1875 0.140625,0.26953125 0.292969,0.26953125 0.304688,0 0.375,-0.24609375 0.445313,-0.5625 0.140625,-0.56249996 0.515625,-2.01562496 0.597656,-2.40234376 0.03516,-0.1289062 0.5625,-1.3242187 1.652344,-1.3242187 0.421875,0 0.539062,0.3398437 0.539062,0.6914062 0,0.5742188 -0.421875,1.7109375 -0.621094,2.2382813 -0.09375,0.234375 -0.128906,0.35156246 -0.128906,0.55078121 0,0.46875 0.351563,0.80859375 0.808594,0.80859375 0.9375,0 1.3125,-1.45312496 1.3125,-1.53515626 0,-0.09375 -0.09375,-0.09375 -0.117188,-0.09375 -0.105468,0 -0.105468,0.023437 -0.152343,0.1757813 -0.152344,0.52734371 -0.46875,1.24218746 -1.019532,1.24218746 -0.164062,0 -0.234375,-0.10546875 -0.234375,-0.328125 0,-0.2578125 0.08203,-0.4921875 0.175782,-0.71484376 0.1875,-0.515625 0.609375,-1.6171875 0.609375,-2.1914062 0,-0.6445313 -0.398438,-1.0664063 -1.148438,-1.0664063 -0.75,0 -1.253906,0.4453125 -1.617187,0.9726563 -0.01172,-0.1289063 -0.04687,-0.46875 -0.328125,-0.7148438 -0.246094,-0.1992187 -0.5625,-0.2578125 -0.808594,-0.2578125 -0.902344,0 -1.382813,0.6445313 -1.558594,0.8671875 -0.04687,-0.5625 -0.46875,-0.8671875 -0.914062,-0.8671875 -0.457032,0 -0.644532,0.3867188 -0.738282,0.5742188 -0.175781,0.3398437 -0.304687,0.9375 -0.304687,0.9609375 0,0.1054687 0.09375,0.1054687 0.117187,0.1054687 0.09375,0 0.105469,-0.011719 0.164063,-0.234375 0.175781,-0.703125 0.375,-1.1835937 0.726562,-1.1835937 0.164063,0 0.316407,0.082031 0.316407,0.4570312 0,0.2109375 -0.03516,0.3164063 -0.164063,0.8320313 z m 12.56836,-3.16406251 c 0.01172,-0.070312 0.03516,-0.1171875 0.03516,-0.1875 0,-0.1640625 -0.117188,-0.2695312 -0.292969,-0.2695312 -0.09375,0 -0.363281,0.070312 -0.410156,0.4335937 -0.175781,-0.375 -0.527344,-0.6328125 -0.925781,-0.6328125 -1.136719,0 -2.367188,1.3945313 -2.367188,2.8359375 0,0.98437501 0.609375,1.57031251 1.324219,1.57031251 0.585937,0 1.054687,-0.46875 1.160156,-0.57421875 l 0.01172,0.0117188 c -0.210938,0.87890625 -0.328125,1.2890625 -0.328125,1.3125 -0.04687,0.0820313 -0.386719,1.07812494 -1.441406,1.07812494 -0.1875,0 -0.515625,-0.011719 -0.796875,-0.1054687 0.304687,-0.09375 0.410156,-0.3515625 0.410156,-0.515625 0,-0.1640625 -0.105469,-0.35156249 -0.375,-0.35156249 -0.222656,0 -0.539063,0.17578119 -0.539063,0.57421869 0,0.4101563 0.363282,0.609375 1.324219,0.609375 1.242188,0 1.957031,-0.7734375 2.109375,-1.37109369 z m -1.289063,2.4726563 c -0.05859,0.2578125 -0.292969,0.51562496 -0.503906,0.70312496 -0.210938,0.17578125 -0.527344,0.3515625 -0.808594,0.3515625 -0.503906,0 -0.65625,-0.515625 -0.65625,-0.91406246 0,-0.4804688 0.292969,-1.6523438 0.5625,-2.15625 0.269531,-0.4921875 0.703125,-0.890625 1.113281,-0.890625 0.65625,0 0.796875,0.8085937 0.796875,0.8554687 0,0.046875 -0.01172,0.1054688 -0.02344,0.1523438 z m 0,0"
         style="fill:#000000;fill-opacity:1;fill-rule:nonzero;stroke:none" />
    </g>
    <path
       id="path33"
       d="m 141.7341,12.75595 v 53.85922 h 56.69362 V 12.75595 Z"
       style="fill:none;stroke:#808080;stroke-width:0.3985;stroke-linecap:butt;stroke-linejoin:miter;stroke-miterlimit:10;stroke-dasharray:2.98883, 2.98883;stroke-dashoffset:0;stroke-opacity:1"
       transform="matrix(1.3333333,0,0,-1.3333333,69.474667,150.46267)" />
    <path
       id="path34"
       d="M 5.8019453,-6.7743984 H 0.32928906 v 0.3046875 h 0.234375 c 0.77343754,0 0.79687504,0.1171875 0.79687504,0.46875 v 5.22656246 c 0,0.3515625 -0.023437,0.46875 -0.79687504,0.46875 h -0.234375 V -9.609375e-4 C 0.68085156,-0.03611719 1.4542891,-0.03611719 1.8410078,-0.03611719 c 0.4101563,0 1.3125,0 1.6757813,0.0351562525 V -0.30564844 h -0.328125 c -0.9492188,0 -0.9492188,-0.12890625 -0.9492188,-0.48046875 V -3.2353359 h 0.8554688 c 0.9609375,0 1.0546875,0.3164062 1.0546875,1.1601562 H 4.4074141 V -4.7118984 H 4.1496016 c 0,0.8320312 -0.09375,1.1601562 -1.0546875,1.1601562 H 2.2394453 v -2.5195312 c 0,-0.328125 0.023437,-0.3984375 0.4921875,-0.3984375 h 1.1953125 c 1.4882813,0 1.7460938,0.5625 1.8984375,1.9335937 h 0.2578125 z m 1.5380859,3.46875 v -1.1015625 l -1.3828125,0.1171875 v 0.3046875 c 0.6914063,0 0.7734375,0.070312 0.7734375,0.5625 v 2.66015621 c 0,0.45703125 -0.1054687,0.45703125 -0.7734375,0.45703125 V -9.609375e-4 C 6.3439375,-0.01267969 6.8126875,-0.03611719 7.0939375,-0.03611719 c 0.3984375,0 0.8671875,0 1.265625,0.0351562525 V -0.30564844 H 8.148625 c -0.7382813,0 -0.7617188,-0.1171875 -0.7617188,-0.46875 V -2.3095547 c 0,-0.984375 0.421875,-1.875 1.1835938,-1.875 0.058594,0 0.082031,0 0.1054687,0.011719 -0.035156,0.011719 -0.234375,0.1289062 -0.234375,0.3867187 0,0.28125 0.2109375,0.4335938 0.4335938,0.4335938 0.1757812,0 0.421875,-0.1289063 0.421875,-0.4453125 0,-0.3164063 -0.3046875,-0.609375 -0.7265625,-0.609375 -0.7382813,0 -1.0898438,0.6679687 -1.2304688,1.1015623 z m 3.3515628,0.796875 c 0.05859,-1.4882813 0.902343,-1.734375 1.242187,-1.734375 1.019531,0 1.125,1.3476562 1.125,1.734375 z m -0.01172,0.2109375 h 2.789062 c 0.210938,0 0.246094,0 0.246094,-0.2109375 0,-0.984375 -0.539062,-1.9570313 -1.78125,-1.9570313 -1.160156,0 -2.0742185,1.03125 -2.0742185,2.2734375 0,1.33593751 1.0429685,2.29687501 2.1914065,2.29687501 1.21875,0 1.664062,-1.1015625 1.664062,-1.28906251 0,-0.1054687 -0.08203,-0.1171875 -0.128906,-0.1171875 -0.09375,0 -0.117188,0.058594 -0.128906,0.140625 -0.351563,1.01953126 -1.253907,1.01953126 -1.347657,1.01953126 -0.503906,0 -0.902343,-0.29296875 -1.125,-0.66796875 C 10.679875,-1.2900234 10.679875,-1.9462734 10.679874,-2.2978359 Z m 4.438477,-0.2109375 c 0.05859,-1.4882813 0.902343,-1.734375 1.242187,-1.734375 1.019531,0 1.125,1.3476562 1.125,1.734375 z m -0.01172,0.2109375 h 2.789062 c 0.210938,0 0.246094,0 0.246094,-0.2109375 0,-0.984375 -0.539062,-1.9570313 -1.78125,-1.9570313 -1.160156,0 -2.074219,1.03125 -2.074219,2.2734375 0,1.33593751 1.042969,2.29687501 2.191407,2.29687501 1.21875,0 1.664062,-1.1015625 1.664062,-1.28906251 0,-0.1054687 -0.08203,-0.1171875 -0.128906,-0.1171875 -0.09375,0 -0.117188,0.058594 -0.128906,0.140625 -0.351563,1.01953126 -1.253907,1.01953126 -1.347657,1.01953126 -0.503906,0 -0.902343,-0.29296875 -1.125,-0.66796875 C 15.106633,-1.2900234 15.106633,-1.9462734 15.106633,-2.2978359 Z m 6.082031,0.4335937 v -0.5742187 h -2.648437 v 0.5742187 z m 2.276367,-1.8867187 v -3.1640625 l -1.429687,0.1054687 v 0.3164063 c 0.691406,0 0.773437,0.070312 0.773437,0.5507812 v 5.9414062625 h 0.246094 c 0.01172,-0.0117187525 0.09375,-0.1523437525 0.363281,-0.6210937525 0.152344,0.234375 0.5625,0.7265625 1.300781,0.7265625 1.183594,0 2.226563,-0.97265625 2.226563,-2.26171871 0,-1.265625 -0.972656,-2.25 -2.109375,-2.25 -0.785156,0 -1.207031,0.46875 -1.371094,0.65625 z m 0.03516,2.6132812 v -2.0507812 c 0,-0.1875 0,-0.1992188 0.105469,-0.3632813 0.386719,-0.5507812 0.9375,-0.6328125 1.171875,-0.6328125 0.457031,0 0.808594,0.2578125 1.054688,0.6328125 0.257812,0.4101563 0.28125,0.984375 0.28125,1.3945313 0,0.3632812 -0.01172,0.9609375 -0.304688,1.40624996 -0.210937,0.31640625 -0.585937,0.64453125 -1.125,0.64453125 -0.445312,0 -0.808594,-0.24609375 -1.042969,-0.609375 -0.140625,-0.2109375 -0.140625,-0.24609375 -0.140625,-0.42187501 z m 8.745118,-0.9960937 c 0,-1.2773438 -0.996094,-2.3320313 -2.191407,-2.3320313 -1.253906,0 -2.214843,1.0898438 -2.214843,2.3320313 0,1.28906246 1.03125,2.23828121 2.203125,2.23828121 1.207031,0 2.203125,-0.97265625 2.203125,-2.23828121 z M 30.0539,-0.14158594 c -0.433593,0 -0.867187,-0.2109375 -1.136718,-0.66796875 -0.257813,-0.43359371 -0.257813,-1.04296871 -0.257813,-1.40625001 0,-0.3867187 0,-0.9257812 0.246094,-1.359375 0.269531,-0.4570312 0.738281,-0.6679687 1.136719,-0.6679687 0.433593,0 0.867187,0.2226562 1.125,0.6445312 0.257812,0.4335938 0.257812,1.0078125 0.257812,1.3828125 0,0.3632813 0,0.9023438 -0.222656,1.33593751 -0.222656,0.4453125 -0.65625,0.73828125 -1.148438,0.73828125 z m 6.550782,-0.41015625 v 0.65625 L 38.069523,-9.609375e-4 V -0.30564844 c -0.703125,0 -0.773437,-0.0703125 -0.773437,-0.5625 V -6.9150234 l -1.441406,0.1054687 v 0.3164063 c 0.703125,0 0.785156,0.070312 0.785156,0.5507812 v 2.15625 c -0.292969,-0.3632812 -0.726563,-0.6210937 -1.265625,-0.6210937 -1.171875,0 -2.214844,0.984375 -2.214844,2.2617187 0,1.26562501 0.972656,2.25000001 2.109375,2.25000001 0.644531,0 1.089844,-0.33984375 1.335938,-0.65625 z m 0,-2.67187501 v 2.0507813 c 0,0.17578121 0,0.19921871 -0.105469,0.36328121 -0.304688,0.48046875 -0.75,0.703125 -1.183594,0.703125 -0.445312,0 -0.796875,-0.2578125 -1.042969,-0.64453125 -0.257814,-0.41015626 -0.29297,-0.97265626 -0.29297,-1.38281246 0,-0.3632813 0.02344,-0.9609375 0.316406,-1.4179688 0.210937,-0.3046875 0.585937,-0.6328125 1.125,-0.6328125 0.351562,0 0.761719,0.1523438 1.078125,0.5976563 0.105469,0.1640625 0.105469,0.1875 0.105469,0.3632812 z m 5.885742,-0.1289062 c 0.257812,-0.6210938 0.761719,-0.6328125 0.925781,-0.6328125 v -0.3046875 c -0.234375,0.011719 -0.515625,0.023437 -0.75,0.023437 -0.175781,0 -0.644531,-0.023437 -0.867187,-0.023437 v 0.3046875 c 0.304687,0.011719 0.46875,0.1757812 0.46875,0.4335937 0,0.09375 -0.01172,0.1171875 -0.05859,0.234375 l -1.007813,2.44921876 -1.101562,-2.68359376 c -0.04687,-0.09375 -0.05859,-0.140625 -0.05859,-0.1757812 0,-0.2578125 0.363281,-0.2578125 0.550781,-0.2578125 v -0.3046875 c -0.257812,0 -0.914062,0.023437 -1.078125,0.023437 -0.269531,0 -0.667968,-0.011719 -0.972656,-0.023437 v 0.3046875 c 0.480469,0 0.667969,0 0.808594,0.3515625 l 1.5,3.6328124625 C 40.791203,0.12794531 40.650578,0.45607031 40.591984,0.58497656 40.381047,1.1357578 40.099797,1.8271641 39.455266,1.8271641 c -0.04687,0 -0.269532,0 -0.46875,-0.1875 0.316406,-0.035156 0.398437,-0.2578125 0.398437,-0.4101563 0,-0.26953124 -0.199219,-0.42187499 -0.421875,-0.42187499 -0.199219,0 -0.421875,0.12890625 -0.421875,0.42187499 0,0.4570313 0.421875,0.8085938 0.914063,0.8085938 0.632812,0 1.042968,-0.5625 1.277343,-1.13671879 z m 8.235351,2.80078121 v 0.65625 L 52.190617,-9.609375e-4 V -0.30564844 c -0.703125,0 -0.773437,-0.0703125 -0.773437,-0.5625 V -6.9150234 l -1.441407,0.1054687 v 0.3164063 c 0.703125,0 0.785157,0.070312 0.785157,0.5507812 v 2.15625 c -0.292969,-0.3632812 -0.726563,-0.6210937 -1.265625,-0.6210937 -1.171875,0 -2.214844,0.984375 -2.214844,2.2617187 0,1.26562501 0.972656,2.25000001 2.109375,2.25000001 0.644531,0 1.089844,-0.33984375 1.335937,-0.65625 z m 0,-2.67187501 v 2.0507813 c 0,0.17578121 0,0.19921871 -0.105468,0.36328121 -0.304688,0.48046875 -0.75,0.703125 -1.183594,0.703125 -0.445313,0 -0.796875,-0.2578125 -1.042969,-0.64453125 -0.257812,-0.41015626 -0.292969,-0.97265626 -0.292969,-1.38281246 0,-0.3632813 0.02344,-0.9609375 0.316407,-1.4179688 0.210937,-0.3046875 0.585937,-0.6328125 1.125,-0.6328125 0.351562,0 0.761718,0.1523438 1.078125,0.5976563 0.105468,0.1640625 0.105468,0.1875 0.105468,0.3632812 z m 3.498047,-1.1835937 -1.394531,0.1171875 v 0.3046875 c 0.65625,0 0.738281,0.058594 0.738281,0.5507812 v 2.67187501 c 0,0.45703125 -0.105468,0.45703125 -0.773437,0.45703125 v 0.3046875025 c 0.316404,-0.0117187525 0.855467,-0.0351562525 1.10156,-0.0351562525 0.339844,0 0.691407,0.0234375 1.03125,0.0351562525 V -0.30564844 c -0.65625,0 -0.703125,-0.0585938 -0.703125,-0.4453125 z m 0.04687,-1.734375 c 0,-0.3164063 -0.246093,-0.5273438 -0.527343,-0.5273438 -0.316407,0 -0.527344,0.2695313 -0.527344,0.5273438 0,0.2695312 0.210937,0.5273437 0.527344,0.5273437 0.28125,0 0.527343,-0.1992187 0.527343,-0.5273437 z m 4.277344,5.37890621 c 0.03516,0.3984375 0.304688,0.8203125 0.773438,0.8203125 0.210937,0 0.820312,-0.140625 0.820312,-0.94921875 V -1.4423672 h -0.246094 v 0.55078126 c 0,0.5859375 -0.246093,0.64453125 -0.363281,0.64453125 -0.328125,0 -0.363281,-0.45703125 -0.363281,-0.50390625 V -2.7431484 c 0,-0.4101563 0,-0.8085938 -0.363281,-1.171875 -0.386719,-0.3867188 -0.878907,-0.5507813 -1.359375,-0.5507813 -0.820313,0 -1.511719,0.46875 -1.511719,1.125 0,0.3046875 0.199219,0.46875 0.457031,0.46875 0.28125,0 0.46875,-0.1992187 0.46875,-0.4570312 0,-0.1171875 -0.05859,-0.4453125 -0.515625,-0.4570313 0.269531,-0.3515625 0.761719,-0.4570312 1.078125,-0.4570312 0.492188,0 1.054688,0.3867187 1.054688,1.2773437 v 0.3632813 c -0.503907,0.035156 -1.207032,0.058594 -1.828125,0.3632812 -0.75,0.3398438 -0.996094,0.8554688 -0.996094,1.28906251 0,0.80859375 0.960937,1.0546875 1.59375,1.0546875 0.65625,0 1.113281,-0.3984375 1.300781,-0.8671875 z m -0.07031,-1.62890621 v 0.9960937 c 0,0.94921876 -0.714844,1.28906251 -1.160157,1.28906251 -0.492187,0 -0.902343,-0.3515625 -0.902343,-0.85546875 0,-0.53906246 0.421875,-1.37109376 2.0625,-1.42968746 z m 3.952148,0.6796875 c -0.867188,0 -0.867188,-0.9960938 -0.867188,-1.2304688 0,-0.2695312 0.01172,-0.5859375 0.152344,-0.8320312 0.08203,-0.1171875 0.316406,-0.3984375 0.714844,-0.3984375 0.867187,0 0.867187,0.9960937 0.867187,1.21875 0,0.2695312 -0.01172,0.5976562 -0.164062,0.84375 -0.08203,0.1171875 -0.304688,0.3984375 -0.703125,0.3984375 z m -1.160156,0.3867187 c 0,-0.035156 0,-0.2695312 0.175781,-0.46875 0.386719,0.28125 0.796875,0.3046875 0.984375,0.3046875 0.925781,0 1.605469,-0.6796875 1.605469,-1.453125 0,-0.3632812 -0.152344,-0.7382812 -0.398438,-0.9609375 0.351563,-0.3398437 0.714844,-0.3867187 0.890625,-0.3867187 0.02344,0 0.07031,0 0.105469,0 -0.117188,0.046875 -0.164063,0.1523437 -0.164063,0.2695312 0,0.1757813 0.128907,0.2929688 0.292969,0.2929688 0.09375,0 0.28125,-0.070312 0.28125,-0.2929688 0,-0.1757812 -0.117187,-0.4921875 -0.503906,-0.4921875 -0.199219,0 -0.632813,0.058594 -1.054688,0.46875 -0.421875,-0.328125 -0.84375,-0.3632812 -1.054687,-0.3632812 -0.925781,0 -1.617188,0.6914062 -1.617188,1.453125 0,0.4453125 0.222657,0.8203125 0.46875,1.03125 -0.128906,0.1523437 -0.304687,0.4804687 -0.304687,0.8203125 0,0.31640621 0.128906,0.69140621 0.433594,0.89062496 -0.597657,0.17578125 -0.914063,0.59765625 -0.914063,0.99609375 0,0.71484379 0.984375,1.26562499 2.203125,1.26562499 1.171875,0 2.203125,-0.5039062 2.203125,-1.28906249 0,-0.33984375 -0.140625,-0.85546875 -0.644531,-1.125 -0.527344,-0.28125 -1.101563,-0.28125 -1.710938,-0.28125 -0.246093,0 -0.679687,0 -0.75,-0.0117188 -0.316406,-0.046875 -0.527343,-0.35156241 -0.527343,-0.66796871 z m 1.441406,3.1523438 c -1.007813,0 -1.699219,-0.515625 -1.699219,-1.04296879 0,-0.45703125 0.375,-0.8203125 0.820313,-0.85546875 h 0.585937 c 0.855469,0 1.96875,0 1.96875,0.85546875 0,0.53906249 -0.703125,1.04296879 -1.675781,1.04296879 z m 4.148437,-5.1328125 v -1.1015625 l -1.382812,0.1171875 v 0.3046875 c 0.691406,0 0.773437,0.070312 0.773437,0.5625 v 2.66015621 c 0,0.45703125 -0.105468,0.45703125 -0.773437,0.45703125 v 0.3046875025 c 0.38672,-0.0117187525 0.85547,-0.0351562525 1.13672,-0.0351562525 0.398437,0 0.867187,0 1.265625,0.0351562525 V -0.30564844 h -0.210938 c -0.738281,0 -0.761719,-0.1171875 -0.761719,-0.46875 V -2.3095547 c 0,-0.984375 0.421875,-1.875 1.183594,-1.875 0.05859,0 0.08203,0 0.105469,0.011719 -0.03516,0.011719 -0.234375,0.1289062 -0.234375,0.3867187 0,0.28125 0.210937,0.4335938 0.433594,0.4335938 0.175781,0 0.421875,-0.1289063 0.421875,-0.4453125 0,-0.3164063 -0.304688,-0.609375 -0.726563,-0.609375 -0.738281,0 -1.089844,0.6679687 -1.230469,1.1015625 z m 5.554688,2.54296871 c 0.03516,0.3984375 0.304687,0.8203125 0.773437,0.8203125 0.210938,0 0.820313,-0.140625 0.820313,-0.94921875 V -1.4423672 h -0.246094 v 0.55078126 c 0,0.5859375 -0.246094,0.64453125 -0.363281,0.64453125 -0.328125,0 -0.363281,-0.45703125 -0.363281,-0.50390625 V -2.7431484 c 0,-0.4101563 0,-0.8085938 -0.363282,-1.171875 -0.386718,-0.3867188 -0.878906,-0.5507813 -1.359375,-0.5507813 -0.820312,0 -1.511718,0.46875 -1.511718,1.125 0,0.3046875 0.199218,0.46875 0.457031,0.46875 0.28125,0 0.46875,-0.1992187 0.46875,-0.4570312 0,-0.1171875 -0.05859,-0.4453125 -0.515625,-0.4570313 0.269531,-0.3515625 0.761719,-0.4570312 1.078125,-0.4570312 0.492187,0 1.054687,0.3867187 1.054687,1.2773437 v 0.3632813 c -0.503906,0.035156 -1.207031,0.058594 -1.828125,0.3632812 -0.75,0.3398438 -0.996093,0.8554688 -0.996093,1.28906251 0,0.80859375 0.960937,1.0546875 1.59375,1.0546875 0.65625,0 1.113281,-0.3984375 1.300781,-0.8671875 z m -0.07031,-1.62890621 v 0.9960937 c 0,0.94921876 -0.714843,1.28906251 -1.160156,1.28906251 -0.492187,0 -0.902344,-0.3515625 -0.902344,-0.85546875 0,-0.53906246 0.421875,-1.37109376 2.0625,-1.42968746 z m 2.835938,-1.03125 v 2.66015621 c 0,0.45703125 -0.117188,0.45703125 -0.785156,0.45703125 v 0.3046875025 c 0.351562,-0.0117187525 0.855468,-0.0351562525 1.125,-0.0351562525 0.257812,0 0.785156,0.0234375 1.113281,0.0351562525 V -0.30564844 c -0.65625,0 -0.773438,0 -0.773438,-0.45703125 V -2.5908047 c 0,-1.03125 0.714844,-1.59375 1.347657,-1.59375 0.621093,0 0.738281,0.5390625 0.738281,1.1015625 v 2.32031251 c 0,0.45703125 -0.117188,0.45703125 -0.773438,0.45703125 v 0.3046875025 c 0.339844,-0.0117187525 0.855469,-0.0351562525 1.125,-0.0351562525 0.257813,0 0.773438,0.0234375 1.113282,0.0351562525 V -0.30564844 c -0.667969,0 -0.785157,0 -0.785157,-0.45703125 V -2.5908047 c 0,-1.03125 0.714844,-1.59375 1.347657,-1.59375 0.632812,0 0.738281,0.5390625 0.738281,1.1015625 v 2.32031251 c 0,0.45703125 -0.105469,0.45703125 -0.773438,0.45703125 v 0.3046875025 c 0.351563,-0.0117187525 0.855469,-0.0351562525 1.125,-0.0351562525 0.257813,0 0.773438,0.0234375 1.113282,0.0351562525 V -0.30564844 c -0.515625,0 -0.761719,0 -0.773438,-0.3046875 V -2.5087734 c 0,-0.8554688 0,-1.171875 -0.316406,-1.5234375 -0.128906,-0.1757813 -0.46875,-0.375 -1.042969,-0.375 -0.832031,0 -1.277344,0.5976562 -1.441406,0.984375 -0.140625,-0.8671875 -0.878906,-0.984375 -1.324219,-0.984375 -0.726562,0 -1.195312,0.4335937 -1.476562,1.0546875 v -1.0546875 l -1.40625,0.1171875 v 0.3046875 c 0.703125,0 0.785156,0.070312 0.785156,0.5625 z m 0,0"
       style="fill:#000000;fill-opacity:1;fill-rule:nonzero;stroke:none"
       aria-label="Free-bodydiagram"
       transform="matrix(1.3333333,0,0,1.3333333,241.32267,181.388)" />
  </g>
</svg>
